<?xml version="1.0" encoding="UTF-8"?>
<svg id="Layer_1" data-name="Layer 1" xmlns="http://www.w3.org/2000/svg" viewBox="0 0 90 90">
  <defs>
    <style>
      .cls-1 {
        fill: none;
      }

      .cls-2, .cls-3 {
        fill: #fff;
      }

      .cls-3 {
        isolation: isolate;
      }
    </style>
  </defs>
  <rect class="cls-1" width="90" height="90"/>
  <g>
    <g>
      <path class="cls-3" d="M47.45,74.18c-4.08,2.85-8.98,4.32-13.96,4.18-6.14-.22-11.92-2.93-16.03-7.5-4.36-4.78-6.58-11.14-6.16-17.59.43-6.42,2.72-13.34,6.8-20.7,1.15,2.71,1.71,5.64,1.65,8.58,0,.67.54,1.22,1.22,1.22s1.22-.54,1.22-1.22c0-14.13,9.38-14.49,9.66-14.49.68,0,1.23-.55,1.23-1.23s-.55-1.23-1.23-1.23c-1.72-.14-3.38-.74-4.8-1.73-.57-.41-1.08-.89-1.5-1.45,2.69-3.55,5.61-6.92,8.73-10.09,4.5,4.53,8.53,9.51,12.02,14.85l.79-3.25c-3.35-4.73-7.08-9.16-11.17-13.27-.45-.47-1.07-.73-1.72-.72-.65-.02-1.28.24-1.72.72-3,3.06-5.8,6.31-8.37,9.73-1.39-2.9-2.05-6.09-1.93-9.3,0-.67-.54-1.22-1.22-1.22s-1.22.54-1.22,1.22c0,14.13-9.3,14.49-9.66,14.49-.68,0-1.23.55-1.23,1.23s.55,1.23,1.23,1.23c1.72.14,3.38.74,4.8,1.73.71.51,1.33,1.12,1.86,1.81-4.65,8.15-7.3,15.86-7.73,22.93-.51,7.11,1.95,14.11,6.8,19.33,4.54,5.07,10.95,8.06,17.75,8.29h.86c5.21,0,10.31-1.58,14.6-4.54l-1.5-2.09-.07.07ZM14.45,25.43c3.07-1.56,5.39-4.29,6.44-7.57.48,1.39,1.15,2.7,2,3.89,0,.04.03.07.07.07,0,0,0,0,0,0,1.14,1.54,2.64,2.78,4.37,3.61-3.07,1.56-5.39,4.29-6.44,7.57-.44-1.25-1.04-2.44-1.79-3.53,0-.07-.07-.14-.14-.22-1.13-1.66-2.69-2.98-4.51-3.82Z"/>
      <path class="cls-3" d="M30.84,72.44c-12.24-2.22-13.53-15.1-13.53-15.6-.04-.67-.62-1.18-1.29-1.15-.67.04-1.18.62-1.15,1.29,0,.64,1.43,15.24,15.6,17.75h.21c.64-.01,1.17-.51,1.22-1.15.05-.62-.42-1.17-1.04-1.21-.01,0-.02,0-.04,0v.07Z"/>
    </g>
    <g>
      <path class="cls-2" d="M38.97,33.79v1.65c0,2-1,3.15-2.93,3.15h-.93v4.8h-2.01v-12.67h2.93c2,0,2.93,1.07,2.93,3.15v-.07ZM35.04,32.43v4.29h.93c.64,0,1-.29,1-1.22v-1.93c0-.93-.36-1.22-1-1.22h-.93v.07Z"/>
      <path class="cls-2" d="M41.91,30.64v9.8c0,.93.43,1.22,1,1.22s1-.36,1-1.22v-9.8h1.86v9.66c0,2-1,3.22-2.93,3.22s-2.94-1.14-2.94-3.22v-9.66h2Z"/>
      <path class="cls-2" d="M51.35,43.3c-.2-.5-.28-1.04-.21-1.57v-2c0-1.15-.43-1.65-1.29-1.65h-.72v5.15h-2v-12.67h3.01c2.08,0,2.93.93,2.93,2.93v1c.13,1.04-.38,2.06-1.29,2.58,1,.43,1.29,1.36,1.29,2.72v1.93c-.04.53.03,1.07.21,1.57h-1.93ZM49.21,32.43v3.86h.79c.72,0,1.22-.36,1.22-1.36v-1.22c0-.93-.29-1.29-1-1.29h-1Z"/>
      <path class="cls-2" d="M54.5,30.64h2v12.67h-2v-12.67Z"/>
      <path class="cls-2" d="M57.37,30.64h6.16v1.79h-2.08v10.88h-2v-10.88h-2.08s0-1.79,0-1.79Z"/>
      <path class="cls-2" d="M66.24,39.08l-2.5-8.44h2.08l1.5,5.8,1.5-5.8h1.93l-2.5,8.44v4.22h-2v-4.22Z"/>
      <path class="cls-2" d="M33.03,44.24h2v12.67h-2v-12.67Z"/>
      <path class="cls-2" d="M38.26,47.75v9.16h-1.79v-12.67h2.5l2.08,7.59v-7.59h1.79v12.67h-2.08s-2.5-9.16-2.5-9.16Z"/>
      <path class="cls-2" d="M49.06,49.53h2.72v1.79h-2.72v3.72h3.43v1.79h-5.44v-12.67h5.44v1.79h-3.43v3.58h0Z"/>
      <path class="cls-2" d="M56.72,54.54l1.51-10.31h1.86l-1.93,12.67h-2.93l-1.93-12.67h2l1.5,10.31h-.07Z"/>
      <path class="cls-2" d="M62.95,49.53h2.72v1.79h-2.72v3.72h3.43v1.79h-5.44v-12.67h5.44v1.79h-3.43v3.58h0Z"/>
      <path class="cls-2" d="M71.82,56.9c-.2-.5-.28-1.04-.21-1.57v-2c0-1.15-.43-1.65-1.29-1.65h-.72v5.15h-2v-12.67h3.01c2.08,0,2.93.93,2.93,2.93v1c.13,1.04-.38,2.06-1.29,2.58,1,.43,1.29,1.36,1.29,2.72v1.93c-.04.53.03,1.07.21,1.57h-1.93ZM69.68,46.03v3.86h.79c.72,0,1.22-.36,1.22-1.36v-1.22c0-.93-.29-1.29-1-1.29h-1Z"/>
      <path class="cls-2" d="M76.62,52.68l-2.5-8.44h2.08l1.5,5.8,1.5-5.8h1.93l-2.5,8.44v4.22h-2v-4.22Z"/>
      <path class="cls-2" d="M35.82,57.84c1.93,0,2.79,1.29,2.79,3.15v6.37c0,1.86-.86,3.15-2.79,3.15h-2.79v-12.67h2.79ZM35.82,69.72c1.43,0,2-.93,2-2.36v-6.44c0-1.36-.57-2.36-2-2.36h-1.93v11.17h1.93Z"/>
      <path class="cls-2" d="M42.69,57.84c1.93,0,2.72,1.07,2.72,2.86v1.07c0,1.5-.57,2.36-1.86,2.65,1.2.23,2.02,1.36,1.86,2.58v2c-.05.52.05,1.04.29,1.5h-.86c-.23-.47-.32-.99-.29-1.5v-2.01c0-1.72-.93-2.15-2.36-2.15h-1.29v5.65h-.86v-12.67h2.65ZM42.19,64.06c1.5,0,2.36-.43,2.36-2.15v-1.22c0-1.36-.5-2.15-1.93-2.15h-1.79v5.51h1.36Z"/>
      <path class="cls-2" d="M46.99,60.91c0-1.86.86-3.22,2.79-3.22s2.79,1.36,2.79,3.22v6.51c0,1.86-.86,3.22-2.79,3.22s-2.79-1.36-2.79-3.22v-6.51ZM47.78,67.43c0,1.36.57,2.36,1.93,2.36s2-1,2-2.36v-6.58c0-1.36-.57-2.36-2-2.36s-1.93,1-1.93,2.36v6.58Z"/>
      <path class="cls-2" d="M56.58,57.84c1.93,0,2.72,1.22,2.72,3.08v1.36c0,2-.93,3.01-2.93,3.01h-1.57v5.22h-.86v-12.67h2.65ZM56.36,64.49c1.43,0,2.08-.64,2.08-2.22v-1.5c0-1.36-.5-2.29-1.86-2.29h-1.79v5.94h1.57v.07Z"/>
    </g>
  </g>
</svg>