<?xml version="1.0" encoding="UTF-8"?>
<svg id="Layer_1" data-name="Layer 1" xmlns="http://www.w3.org/2000/svg" viewBox="0 0 90 90">
  <defs>
    <style>
      .cls-1 {
        fill: none;
      }

      .cls-2 {
        fill: #fff;
      }
    </style>
  </defs>
  <path class="cls-2" d="M66.8,17.88c-2.2-.57-17.01-4.56-21.56-4.56s-19.36,3.99-21.56,4.56c-2.19.56-4.39.81-4.39,4.71v29.69c-.08,17.9,23.1,29.29,25.87,29.29s25.95-11.39,25.95-29.29v-29.69c0-3.9-2.12-4.15-4.31-4.71ZM69.32,22.11v30.26c0,8.62-5.94,15.45-10.98,19.68-5.86,4.96-11.8,7.65-13.18,7.89-1.38-.24-7.4-2.93-13.18-7.89-4.96-4.23-10.98-11.06-10.98-19.68v-30.26c-.04-.63.1-1.25.41-1.79.57-.34,1.21-.56,1.87-.66.16-.08,17.97-4.71,21.96-4.71s21.72,4.63,21.88,4.71c.63.12,1.24.34,1.79.66.32.54.46,1.16.41,1.79Z"/>
  <path class="cls-2" d="M58.1,71.56c-5.69,4.8-11.55,7.4-12.85,7.73-1.3-.24-7.24-2.85-12.93-7.73-4.88-4.15-10.74-10.82-10.74-19.28v.24c0,8.46,5.86,15.13,10.74,19.28,3.83,3.31,8.21,5.92,12.93,7.73,1.3-.24,7.16-2.85,12.85-7.73,4.88-4.15,10.74-10.82,10.74-19.28v-.24c0,8.46-5.86,15.13-10.74,19.28Z"/>
  <path class="cls-2" d="M47.28,30.56h2.03c.78.06,1.54-.2,2.11-.73.48-.5.71-1.18.65-1.87-.01-.33-.07-.66-.16-.98-.06-.3-.24-.56-.49-.73-.22-.24-.5-.41-.81-.49-.37-.1-.75-.15-1.14-.16-.33.01-.66.07-.98.16-.29.09-.57.22-.81.41-.23.18-.42.4-.57.65-.14.28-.2.59-.16.9h-3.74c0-.73.16-1.46.49-2.12.31-.63.76-1.18,1.3-1.63.59-.45,1.25-.8,1.95-1.06.79-.24,1.61-.35,2.44-.33.88-.02,1.75.09,2.6.33.73.21,1.42.54,2.03.98.56.43,1.01.99,1.3,1.63.34.71.51,1.49.49,2.28-.01.41-.07.82-.16,1.22-.16.4-.35.78-.57,1.14-.28.35-.57.67-.89.98-.34.34-.76.59-1.22.73.94.31,1.77.91,2.36,1.71.53.79.82,1.73.81,2.68.07,1.58-.63,3.09-1.87,4.07-.62.5-1.34.86-2.11,1.06-.87.24-1.78.35-2.68.33-.8.02-1.59-.09-2.36-.33-.72-.23-1.41-.55-2.03-.98-.59-.44-1.09-.99-1.46-1.63-.41-.72-.6-1.53-.57-2.36h3.74c0,.34.09.67.24.98.12.29.32.54.57.73.25.24.56.41.9.49.37.1.75.15,1.14.16.41-.01.82-.07,1.22-.16.32-.11.63-.28.89-.49.23-.24.43-.51.57-.81.14-.33.2-.7.16-1.06,0-.45-.08-.89-.24-1.3-.14-.35-.36-.65-.65-.9-.27-.26-.61-.43-.98-.49-.43-.1-.86-.15-1.3-.16h-2.03v-2.85Z"/>
  <path class="cls-2" d="M38.9,31.86h2.6v1.87h-2.6v3.01h-2.03v-3.01h-2.68v-1.87h2.68v-2.85h2.03v2.85Z"/>
  <path class="cls-2" d="M39.39,69.36h-2.44v2.52h-1.3v-6.1h4.07v1.06h-2.77v1.46h2.44v1.06Z"/>
  <path class="cls-2" d="M42.72,69.61h-.98v2.28h-1.3v-6.1h2.28c.33-.01.66.01.98.08.26.07.5.18.73.32.18.15.32.35.41.57.1.26.16.53.16.81.02.19,0,.39-.08.57l-.24.49c-.08.16-.24.24-.33.32l-.49.24,1.3,2.52v.08h-1.38l-1.06-2.19ZM41.66,68.55h1.06c.14.02.28,0,.41-.08.08-.08.24-.08.33-.16.1-.08.16-.2.16-.32.07-.12.1-.27.08-.41.02-.24-.07-.48-.24-.65-.2-.18-.47-.26-.73-.24h-.98v1.87h-.08Z"/>
  <path class="cls-2" d="M49.64,69.2h-2.44v1.63h2.85v.97h-4.07v-6.1h4.07v1.06h-2.85v1.46h2.44v.98Z"/>
  <path class="cls-2" d="M54.44,69.2h-2.44v1.63h2.85v.97h-4.07v-6.1h4.07v1.06h-2.85v1.46h2.44v.98Z"/>
  <path class="cls-2" d="M20.43,16.08l-.9.24-.98-3.33-.98.65-.16-.73,1.63-1.14h.08l1.3,4.31Z"/>
  <path class="cls-2" d="M22.71,12.83l.33-2.2.98-.24-.57,3.09.41,1.55-.9.24-.4-1.54-2.2-2.36.98-.24,1.38,1.71Z"/>
  <path class="cls-2" d="M27.84,11.93l-1.71.49.33,1.14,2.03-.57.16.73-2.93.81-1.22-4.39,2.93-.81.16.73-2.03.57.24,1.06,1.71-.49.33.73Z"/>
  <path class="cls-2" d="M31.41,12.1l-1.55.41-.08.98-.98.24.49-4.8.81-.24,2.77,3.9-.98.24-.49-.73ZM29.87,11.69l1.06-.33-.98-1.46-.08,1.79Z"/>
  <path class="cls-2" d="M34.51,10.55l-.73.16.41,1.63-.9.24-1.14-4.39,1.63-.41c.24-.07.49-.09.73-.08.2,0,.4.06.57.16.17.06.31.17.41.33.1.18.18.37.24.57.02.14.05.27.08.41.01.14-.02.28-.08.41-.08.08-.08.24-.16.33l-.24.24,1.38,1.55v.08l-.98.24-1.22-1.46ZM33.61,9.98l.73-.16c.12-.02.24-.08.33-.16.08-.08.16-.08.16-.16.06-.07.09-.15.08-.24v-.25c-.04-.18-.16-.33-.33-.41-.18-.07-.38-.1-.57-.08l-.73.16.33,1.3Z"/>
  <path class="cls-2" d="M41.91,9.17l-.08-3.25.9-.16v4.64l-.98.16-1.38-2.85-.08,3.09-.9.16-1.95-4.23.9-.16,1.3,3.01.08-3.34.73-.16,1.47,3.09Z"/>
  <path class="cls-2" d="M46.3,9l-1.63.08-.24.98-.98.08,1.38-4.64.9-.08,1.95,4.39-.98.08-.41-.89ZM44.92,8.27l1.14-.08-.65-1.63-.49,1.71Z"/>
  <path class="cls-2" d="M49.8,8.84l-.73-.16-.32,1.63-.89-.16.89-4.39,1.63.32c.22.07.44.15.65.24.16.08.32.24.49.32l.24.49v.57c0,.15-.06.3-.16.41-.08.08-.16.24-.24.33-.09.1-.2.18-.32.24-.08.08-.24.08-.41.16l.57,2.03v.08l-.98-.16-.41-1.95ZM49.23,7.95l.73.16h.32c.08,0,.16-.08.24-.08.08-.08.16-.08.16-.16.06-.07.09-.15.08-.24.06-.19.03-.4-.08-.57-.11-.17-.29-.29-.49-.32l-.73-.16-.24,1.38Z"/>
  <path class="cls-2" d="M53.79,9.82l-.73-.16-.41,1.63-.89-.24,1.14-4.39,1.63.41c.22.07.44.15.65.24.17.09.32.23.41.41l.24.49v.57c-.08.16-.08.33-.16.41s-.16.24-.24.33c-.08.1-.2.16-.32.16-.13.07-.27.09-.41.08l.49,2.03v.08l-.98-.24-.41-1.79ZM53.3,8.84l.73.16c.08,0,.24.08.32,0,.09.01.18-.02.24-.08.08-.08.16-.08.16-.16.06-.07.09-.15.08-.24.06-.19.03-.4-.08-.57-.11-.17-.29-.29-.49-.33l-.73-.16-.24,1.38Z"/>
  <path class="cls-2" d="M58.42,11.77l-1.63-.41-.57.81-.98-.25,2.85-3.9.81.24.41,4.8-.89-.33v-.98ZM57.28,10.71l1.06.33-.08-1.79-.98,1.46Z"/>
  <path class="cls-2" d="M63.3,14.21l-.89-.24-.89-3.42-.89,2.85-.89-.24,1.3-4.31.89.24.89,3.42.89-2.85.89.24-1.3,4.31Z"/>
  <path class="cls-2" d="M68.35,11.85l-1.3-.41-1.14,3.58-.89-.24,1.13-3.58-1.3-.41.24-.73,3.5,1.06-.24.73Z"/>
  <path class="cls-2" d="M70.05,13.72l1.55-1.63.98.33-2.28,2.28-.57,1.55-.89-.33.49-1.55-.57-3.17.98.33.32,2.2Z"/>
  <path class="cls-2" d="M37.11,46.26v1.79h-1.06v-1.79l-1.71-2.93h.98c.09-.01.18.02.24.08l.16.16.65,1.38c.08.08.08.24.16.33.06.07.09.15.08.24,0-.08.08-.16.08-.24.08-.08.08-.16.16-.33l.65-1.38s.03-.08.08-.08c0,0,0,0,0,0l.08-.08.08-.08h1.14l-1.79,2.93Z"/>
  <path class="cls-2" d="M42.15,43.41v.81h-1.95v1.06h1.46v.81h-1.46v1.14h1.95v.81h-3.01v-4.71h3.01v.08Z"/>
  <path class="cls-2" d="M47.12,48.05h-.82c-.09.01-.18-.02-.24-.08l-.16-.16-.24-.81h-1.79l-.24.81c0,.08-.08.08-.16.16-.07.06-.15.09-.24.08h-.81l1.79-4.72h1.14l1.79,4.72ZM44.11,46.26h1.3l-.41-1.3c0-.08-.08-.16-.08-.33,0-.08-.08-.24-.08-.33,0,.16-.08.24-.08.33s-.08.24-.08.33l-.57,1.3Z"/>
  <path class="cls-2" d="M48.58,46.34v1.71h-1.06v-4.72h1.55c.3-.02.6,0,.89.08.21.06.41.17.57.33.13.11.24.25.32.41.07.18.1.38.08.57.02.14,0,.28-.08.41,0,.16-.08.24-.16.41-.08.08-.16.24-.32.33-.12.1-.26.18-.41.24.08,0,.16.08.24.16l.16.16.98,1.63h-.98c-.17,0-.33-.09-.41-.24l-.81-1.38c0-.08-.08-.08-.08-.16h-.49v.08ZM48.58,45.61h.41c.14.01.28-.02.41-.08.08,0,.16-.08.24-.16s.08-.16.16-.24c0-.08.08-.16.08-.33.01-.18-.05-.35-.16-.49-.2-.11-.42-.17-.65-.16h-.41v1.46h-.08Z"/>
  <path class="cls-2" d="M54.35,44.31s-.03.08-.08.08c0,0,0,0,0,0h-.17q-.08,0-.16-.08c-.08,0-.08-.08-.16-.08s-.16-.08-.24-.08-.16-.08-.32-.08c-.18,0-.35.06-.49.16-.09.09-.14.2-.16.33-.01.09.02.18.08.24.08.08.16.08.24.16s.24.08.32.16c.16,0,.24.08.41.16s.24.08.41.16c.12.06.23.14.32.24.08.08.16.24.24.33.07.15.09.32.08.49.02.19,0,.39-.08.57-.15.37-.44.66-.81.81-.24.07-.49.1-.73.08-.14.02-.28,0-.41-.08-.15,0-.3-.06-.41-.16-.16-.08-.24-.08-.41-.16-.12-.06-.23-.15-.32-.25l.32-.49.08-.08h.16c.08,0,.16,0,.16.08.08.08.16.08.24.16s.16.08.24.16c.13.03.27.06.41.08.17-.02.34-.07.49-.16.1-.11.16-.26.16-.41.01-.09-.02-.18-.08-.24-.16-.08-.24-.08-.32-.16-.1-.06-.21-.09-.32-.08-.16,0-.24-.08-.41-.08-.16-.08-.24-.08-.41-.16-.12-.06-.23-.14-.32-.24-.1-.12-.18-.26-.24-.41-.07-.18-.1-.38-.08-.57-.01-.17.01-.33.08-.49.06-.17.17-.31.32-.41.14-.14.31-.25.49-.33.21-.07.43-.1.65-.08h.41c.16,0,.24.08.41.08.16.08.24.08.32.16l.24.24-.16.41Z"/>
  <path class="cls-2" d="M18.16,56.43c0,3.25,12.12,5.86,27.01,5.86s27.01-2.6,27.01-5.86v-9.6c0,3.25-12.12,5.86-27.01,5.86s-27.01-2.6-27.01-5.86v9.6Z"/>
  <g>
    <path d="M25.97,56.59v-.24c0-.06-.04-.12-.08-.16l-.24-.24c-.12-.1-.26-.18-.41-.24-.16-.08-.41-.24-.57-.33-.16-.16-.32-.24-.41-.41l-.24-.49c-.08-.18-.08-.39,0-.57.08-.16.08-.33.24-.49.1-.15.24-.26.41-.33.18-.09.37-.15.57-.16.25-.01.49.01.73.08.22.07.44.15.65.24.18.11.35.25.49.41.14.12.23.3.24.49.08.18.08.39,0,.57-.32-.08-.65-.08-.98-.16v-.24c0-.08-.08-.16-.08-.24-.08-.08-.16-.16-.24-.16-.08-.08-.16-.08-.32-.08h-.32c-.09-.01-.18.02-.24.08-.09,0-.16.08-.16.16-.05.04-.08.1-.08.16,0,.16,0,.33.16.41.19.17.41.31.65.41.24.16.41.24.65.41.16.16.32.24.41.41l.24.49c0,.16.08.33,0,.49,0,.19-.09.38-.24.49-.1.15-.24.26-.41.33-.18.09-.37.15-.57.16-.25.01-.49-.01-.73-.08-.17-.02-.34-.07-.49-.16-.15-.06-.28-.14-.41-.24-.15-.06-.26-.18-.32-.33-.08-.08-.16-.24-.24-.33-.08-.16-.08-.24-.16-.41v-.49l.98.24v.33c0,.08.08.16.16.24s.16.16.24.16c.12.07.26.1.4.08h.32c.09.01.18-.02.24-.08.09,0,.16-.08.16-.16h0Z"/>
    <path d="M30.6,56.59c-.63-.07-1.25-.18-1.87-.33-.09.4-.15.81-.16,1.22.73.15,1.46.26,2.2.33,0,.24-.08.49-.08.73-1.08-.17-2.17-.33-3.25-.49.24-1.55.57-3.01.81-4.56,1.06.16,2.03.33,3.09.49,0,.24-.08.49-.08.73-.73-.08-1.46-.24-2.11-.33-.08.33-.08.73-.16,1.06.63.07,1.25.18,1.87.33-.15.25-.23.53-.25.81Z"/>
    <path d="M33.21,57.24c-.24,0-.49-.08-.81-.08l-.24,1.71c-.32-.08-.65-.08-.98-.16.24-1.55.41-3.01.65-4.56l1.71.24c.25.02.5.07.73.16.2.04.38.15.49.33.14.14.25.31.33.49.07.18.09.38.08.57-.02.14-.05.27-.08.41-.08.16-.08.24-.24.33-.09.1-.2.18-.33.24-.08.08-.24.08-.41.16.24.65.57,1.3.81,1.95v.08c-.33,0-.73-.08-1.06-.08-.18-.61-.4-1.21-.65-1.79ZM32.55,56.35c.24,0,.49.08.81.08h.32c.08,0,.16-.08.24-.08.08-.08.16-.08.16-.16.06-.07.09-.15.08-.24.03-.2-.03-.41-.16-.57-.13-.17-.35-.27-.57-.24-.24,0-.49-.08-.73-.08-.09.43-.15.87-.16,1.31h0Z"/>
    <path d="M37.35,58.22c.49-1.14.9-2.28,1.3-3.42.33,0,.73.08,1.06.08-.65,1.46-1.22,3.01-1.95,4.47-.33,0-.73-.08-1.06-.08-.41-1.55-.81-3.17-1.22-4.72.33,0,.73.08,1.06.08.33,1.22.57,2.36.82,3.58Z"/>
    <path d="M41.01,59.52c-.33.01-.66-.01-.98-.08l.24-4.64h.98c-.08,1.63-.16,3.17-.24,4.72Z"/>
    <path d="M45.73,58.06c0,.23-.06.45-.16.65-.09.2-.23.36-.41.49-.16.15-.35.27-.57.33-.26.07-.54.1-.81.08-.28,0-.55-.06-.81-.16-.26-.09-.49-.26-.65-.49-.2-.2-.34-.46-.41-.73-.07-.29-.1-.59-.08-.9v-.33c0-.31.06-.61.16-.9.17-.5.56-.89,1.06-1.06.26-.1.53-.16.81-.16.25,0,.5.05.73.16.21.06.41.17.57.33.16.16.24.33.41.49.1.2.16.42.16.65h-.98c0-.16,0-.24-.08-.33,0-.08-.08-.16-.16-.24s-.16-.16-.24-.16c-.13-.03-.27-.06-.41-.08-.28-.03-.56.09-.73.33-.19.32-.27.69-.24,1.06v.33c-.01.22.01.44.08.65.02.17.07.34.16.49.08.08.16.24.33.24.15.07.32.1.49.08.14.02.28,0,.41-.08.12-.02.24-.08.33-.16.08-.08.16-.16.16-.24.06-.1.09-.21.08-.33h.81Z"/>
    <path d="M49.23,57.49c-.65,0-1.22.08-1.87.08v1.22c.73,0,1.46-.08,2.28-.08v.73c-1.06.08-2.2.08-3.25.08,0-1.55-.08-3.09-.08-4.64,1.06,0,2.03-.08,3.09-.08v.73c-.73,0-1.46.08-2.2.08v1.06c.65,0,1.22-.08,1.87-.08.12.28.18.59.17.9Z"/>
    <path d="M54.6,58.14c-.57.08-1.14.08-1.71.16l-.24.98c-.33,0-.73.08-1.06.08.49-1.55.98-3.17,1.38-4.72.33,0,.57-.08.9-.08.73,1.46,1.46,2.93,2.28,4.39-.35.07-.7.09-1.06.08-.18-.29-.34-.59-.49-.9ZM53.05,57.49c.41,0,.81-.08,1.22-.08-.24-.57-.49-1.14-.73-1.63l-.49,1.71Z"/>
    <path d="M57.28,54.15l1.71,3.17c.24-1.14.49-2.36.65-3.5l1.22-.24c.24,1.55.49,3.01.81,4.56-.33.08-.65.08-.98.16-.09-.4-.15-.81-.16-1.22l-.24-2.2c-.24,1.22-.49,2.36-.73,3.58-.24,0-.49.08-.65.08-.57-1.06-1.14-2.12-1.71-3.25.16.73.24,1.46.41,2.12.08.41.08.81.16,1.22-.33.08-.65.08-.98.16-.16-1.55-.41-3.01-.57-4.56.35,0,.71-.02,1.06-.07Z"/>
    <path d="M65.91,55.7v.65c-.07.2-.15.39-.24.57-.14.16-.31.3-.49.41-.21.15-.47.24-.73.24-.29.08-.6.08-.9,0-.26-.07-.5-.18-.73-.33-.25-.14-.42-.38-.49-.65-.16-.28-.27-.58-.33-.9,0-.11-.02-.23-.08-.33-.08-.29-.08-.6,0-.9.06-.25.14-.5.24-.73.14-.21.31-.4.49-.57.23-.14.47-.25.73-.33.26-.08.55-.08.81,0,.24,0,.47.09.65.24.18.11.35.25.49.41.14.17.25.36.33.57l-.98.24c0-.13-.06-.25-.16-.33l-.24-.24c-.08-.08-.16-.08-.33-.08h-.41c-.29.04-.53.22-.65.49-.13.37-.13.77,0,1.14,0,.11.02.23.08.33.04.19.1.38.16.57.06.15.14.28.24.41.08.08.24.16.33.24h.49c.16,0,.24-.08.41-.16l.24-.24c.08-.08.08-.16.08-.33v-.41c.31.12.66.12.98,0Z"/>
  </g>
  <polyline class="cls-1" points="0 0 90 0 90 90"/>
</svg>