<?xml version="1.0" encoding="utf-8"?>
<!-- Generator: Adobe Illustrator 24.3.0, SVG Export Plug-In . SVG Version: 6.00 Build 0)  -->
<svg version="1.1" id="Layer_1" xmlns="http://www.w3.org/2000/svg" xmlns:xlink="http://www.w3.org/1999/xlink" x="0px" y="0px"
	 viewBox="0 0 122.2 122.2" style="enable-background:new 0 0 122.2 122.2;" xml:space="preserve">
<style type="text/css">
	.st0{fill:none;stroke:#1F75FE;stroke-width:3;stroke-linecap:round;stroke-linejoin:round;stroke-miterlimit:10;}
</style>
<g id="Group_5" transform="translate(-988.33 -638.33)">
	<g id="Group_18" transform="translate(989.83 639.83)">
		<g id="trophy" transform="translate(29.792 26.482)">
			<path id="Path" class="st0" d="M9.9,33.1C3.6,33.1,0,27.2,0,18.4V6.6h8.3"/>
			<path id="Path-2" class="st0" d="M47.9,6.6h8.3v11.8c0,8.8-3.6,14.7-9.9,14.7"/>
			<path id="Path-3" class="st0" d="M28.3,59.6V46.3"/>
			<path id="Path-4" class="st0" d="M28.1,46.3L28.1,46.3c-10.1,0-18.2-9.7-18.2-21.6V0h36.4v24.7C46.3,36.7,38.2,46.3,28.1,46.3z"
				/>
			<path id="Path-5" class="st0" d="M43,69.5H13.2c0-5.5,3.6-9.9,8.1-9.9h13.5C39.4,59.6,43,64,43,69.5z"/>
		</g>
	</g>
</g>
</svg>
