<?xml version="1.0" encoding="UTF-8"?>
<svg id="Layer_1" data-name="Layer 1" xmlns="http://www.w3.org/2000/svg" viewBox="0 0 90 90">
  <defs>
    <style>
      .cls-1, .cls-2 {
        fill: none;
      }

      .cls-3 {
        fill: #fff;
      }

      .cls-2 {
        stroke: #fff;
        stroke-linecap: round;
        stroke-miterlimit: 10;
        stroke-width: 2px;
      }
    </style>
  </defs>
  <path class="cls-3" d="M79.48,22.09c-.22-.31-.58-.49-.96-.48h-13.26c.24-2.97.32-5.95.24-8.92-.02-.64-.56-1.15-1.21-1.12H25.47c-.64-.02-1.18.48-1.21,1.12-.08,2.98,0,5.95.24,8.92h-13.02c-.38,0-.74.17-.96.48-.25.29-.31.69-.16,1.05.24.8,6.03,19.05,24.27,27.49.08,0,.16.08.24.08l4.9,1.21c.47.15.96.25,1.45.32-.96,7.88-3.38,12.38-4.26,13.74h-10.04c-.66.02-1.19.55-1.21,1.21v10.05c.02.66.55,1.19,1.21,1.21h35.76c.66-.02,1.19-.55,1.21-1.21v-10.05c-.02-.66-.55-1.19-1.21-1.21h-9.89c-.88-1.37-3.3-5.87-4.26-13.82.57-.1,1.13-.23,1.69-.4v.08l4.9-1.21c.08,0,.16-.08.24-.08,18.25-8.52,24.03-26.76,24.28-27.49.14-.32.08-.7-.16-.96ZM26.6,13.89h36.41c0,4.98-.32,24.59-8.6,32.71-2.43,2.44-5.81,3.68-9.24,3.38h-.8c-3.43.3-6.82-.93-9.24-3.38-8.12-8.04-8.52-27.73-8.52-32.71h0ZM13.25,24.02h11.41c.72,7.31,2.57,16.56,7.23,22.5-11.65-7.07-17.04-18.4-18.64-22.5ZM43.39,54l.24,11.97h-3.85c1.87-3.76,3.09-7.81,3.61-11.97ZM61.56,76.1H28.12v-7.63h33.35v7.64h.08ZM46.05,66.06l.24-12.62c.5,4.39,1.75,8.66,3.7,12.62h-3.94ZM57.46,46.85c4.82-5.87,6.75-15.35,7.56-22.83h11.82c-1.69,4.18-7.31,15.83-19.37,22.83Z"/>
  <path class="cls-2" d="M45,18.08l3.54,7.23,8.04,1.12-5.79,5.63,1.37,7.96-7.15-3.78-7.15,3.78,1.37-7.96-5.79-5.63,8.04-1.12,3.54-7.23Z"/>
  <polyline class="cls-1" points=".28 0 90.28 0 90.28 90"/>
</svg>