<svg xmlns="http://www.w3.org/2000/svg" width="38.001" height="38.023">
    <defs>
        <filter id="a" x="0" y="0" width="38.001" height="38.023" filterUnits="userSpaceOnUse">
            <feOffset dy="3"/>
            <feGaussianBlur stdDeviation="3" result="blur"/>
            <feFlood flood-opacity=".161"/>
            <feComposite operator="in" in2="blur"/>
            <feComposite in="SourceGraphic"/>
        </filter>
    </defs>
    <g data-name="Group 6643">
        <path data-name="Path 2629" d="m6.012 26.02 1.4-4.975a9.984 9.984 0 1 1 3.73 3.654z" style="fill:#1bd741" transform="translate(2.988 .003)"/>
        <g style="filter:url(#a)">
            <g data-name="Path 2632" style="fill:#1bd741" transform="translate(-.002 .003)">
                <path d="M16.025 25.222a9.247 9.247 0 0 1-4.516-1.177l-.262-.148-.292.076-3.868.995 1.047-3.72.087-.308-.162-.276a9.23 9.23 0 0 1-1.271-4.68c0-5.093 4.144-9.237 9.237-9.237 5.094 0 9.238 4.144 9.238 9.237 0 5.094-4.144 9.238-9.238 9.238z" style="stroke:none" transform="translate(2.99)"/>
                <path d="M16.025 24.472c4.68 0 8.488-3.807 8.488-8.488 0-4.68-3.808-8.487-8.488-8.487s-8.487 3.807-8.487 8.487a8.48 8.48 0 0 0 1.167 4.3l.325.551-.868 3.082 3.19-.82.524.294a8.495 8.495 0 0 0 4.15 1.081M6.011 26.02l1.4-4.976a9.957 9.957 0 0 1-1.374-5.06c0-5.507 4.48-9.987 9.987-9.987 5.508 0 9.988 4.48 9.988 9.987 0 5.508-4.48 9.988-9.988 9.988a9.975 9.975 0 0 1-4.883-1.273l-5.13 1.32z" style="fill:#fff;stroke:none" transform="translate(2.99)"/>
            </g>
        </g>
        <path data-name="Path 2630" d="m15.2 13.45-.648-.035a.784.784 0 0 0-.557.191 2.953 2.953 0 0 0-.971 1.488 4.51 4.51 0 0 0 1.046 3.535 10.516 10.516 0 0 0 5.668 4.121 2.762 2.762 0 0 0 2.339-.289 2.092 2.092 0 0 0 .91-1.328l.1-.483a.336.336 0 0 0-.188-.375l-2.19-1.01a.336.336 0 0 0-.406.1l-.86 1.115a.246.246 0 0 1-.277.082 6.734 6.734 0 0 1-3.644-3.118.249.249 0 0 1 .031-.277l.822-.951a.336.336 0 0 0 .055-.352l-.944-2.209a.336.336 0 0 0-.286-.205z" transform="translate(1.009 -2.111)" style="fill:#fff"/>
    </g>
</svg>
