<?xml version="1.0" encoding="utf-8"?>
<!-- Generator: Adobe Illustrator 25.4.0, SVG Export Plug-In . SVG Version: 6.00 Build 0)  -->
<svg version="1.1" id="Layer_1" xmlns="http://www.w3.org/2000/svg" xmlns:xlink="http://www.w3.org/1999/xlink" x="0px" y="0px"
	 viewBox="0 0 44 44" style="enable-background:new 0 0 44 44;" xml:space="preserve">
<style type="text/css">
	.st0{fill:#1D76FD;}
	.st1{fill:#FFFFFF;}
	.st2{fill:#1F75FE;}
</style>
<g>
	<circle class="st0" cx="22" cy="22" r="21.5"/>
	<g id="FREE_DEMO_00000055671234821819432770000005373678673992979118_" transform="translate(0.5 0.5)">
		<g id="chat-icn_00000172429134645142175400000004790751019328299143_">
			<path id="Path-3_00000103945636262470568380000004057473239620014469_" class="st1" d="M34.9,20.5c0-7-6.4-12.7-14.4-12.7
				S6.1,13.5,6.1,20.5s6.4,12.7,14.4,12.7c1,0,2-0.1,2.9-0.3l7.6,4.2v-8C33.5,26.9,34.9,23.8,34.9,20.5z"/>
			<g id="Path-5_00000115489962804822614510000007628107902997945531_">
				<path class="st2" d="M26,24.9H15c-0.7,0-1.3-0.6-1.3-1.3s0.6-1.3,1.3-1.3H26c0.7,0,1.3,0.6,1.3,1.3S26.7,24.9,26,24.9z"/>
			</g>
			<g id="Path-6_00000176019919225910260220000004249388372116894110_">
				<path class="st2" d="M26,18.1H15c-0.7,0-1.3-0.6-1.3-1.3c0-0.7,0.6-1.3,1.3-1.3H26c0.7,0,1.3,0.6,1.3,1.3
					C27.3,17.6,26.7,18.1,26,18.1z"/>
			</g>
		</g>
	</g>
</g>
</svg>
