<?xml version="1.0" encoding="UTF-8"?>
<svg id="Layer_1" data-name="Layer 1" xmlns="http://www.w3.org/2000/svg" viewBox="0 0 90 90">
  <defs>
    <style>
      .cls-1, .cls-2 {
        fill: none;
      }

      .cls-2 {
        stroke: #fff;
        stroke-linecap: round;
        stroke-linejoin: round;
        stroke-width: 2px;
      }

      .cls-3 {
        fill: #fff;
      }

      .cls-4 {
        opacity: .5;
      }
    </style>
  </defs>
  <rect class="cls-1" width="90" height="90"/>
  <g>
    <path class="cls-2" d="M44.86,23.79l-11.27-13.75S7.61,38.02,6.81,53.13s10.39,25.1,24.06,26.62c13.67,1.6,23.02-6.08,28.22-16.47"/>
    <path class="cls-2" d="M12,56.57s2.08,15.75,14.39,17.03"/>
    <g class="cls-4">
      <path class="cls-3" d="M40.86,49.29h-1.6l-1.28-3.91-1.28,3.92h-1.6l-2.16-7.92h2.08l1.04,4.16,1.28-4.16h1.36l1.28,4.16,1.04-4.16h2.08l-2.24,7.91Z"/>
      <path class="cls-3" d="M48.06,49.29l-.4-1.2h-2.4l-.4,1.2h-2l2.88-7.91h1.52l2.88,7.91h-2.08ZM46.54,44.34l-.72,2.16h1.36l-.64-2.16Z"/>
      <path class="cls-3" d="M53.73,43.06v6.24h-1.92v-6.24h-1.92v-1.76h5.76v1.76h-1.92Z"/>
      <path class="cls-3" d="M56.77,49.29v-7.91h5.44v1.76h-3.44v1.36h2.96v1.76h-2.96v1.36h3.44v1.76h-5.44v-.08Z"/>
      <path class="cls-3" d="M67.57,49.29l-1.44-2.96h-.64v2.96h-1.92v-7.91h3.12c.41,0,.82.08,1.2.24.32.14.62.33.88.56.23.22.4.49.48.8.09.31.15.63.16.96.01.24-.01.49-.08.72-.06.21-.17.4-.32.56-.16.16-.24.32-.4.48-.14.13-.3.24-.48.32l1.68,3.28h-2.24ZM67.25,43.38c-.17-.17-.4-.26-.64-.24h-1.12v1.6h1.12c.24,0,.47-.08.64-.24.31-.29.32-.78.03-1.09,0,0-.02-.02-.03-.03h0Z"/>
    </g>
    <g>
      <path class="cls-3" d="M33.43,39.3v-2.08l4.16-6.32h-3.92v-2.32h7.12v2l-4.15,6.31h4.16v2.32h-7.36v.08Z"/>
      <path class="cls-3" d="M42.22,39.3v-10.79h7.28v2.32h-4.64v1.76h4v2.32h-4v1.92h4.64v2.32h-7.28v.16Z"/>
      <path class="cls-3" d="M56.85,39.3l-1.92-4h-.88v4h-2.64v-10.79h4.24c.55-.02,1.1.09,1.6.32.43.18.81.45,1.12.8.31.32.56.7.72,1.12.16.41.24.84.24,1.28,0,.33-.05.65-.16.96-.08.29-.22.56-.4.8-.14.22-.34.42-.56.56-.19.16-.41.3-.64.4l2.32,4.48h-3.04v.08ZM56.45,31.22c-.23-.23-.55-.35-.88-.32h-1.52v2.16h1.52c.33.03.65-.09.88-.32.2-.18.32-.45.32-.72-.04-.29-.15-.56-.32-.8Z"/>
      <path class="cls-3" d="M69.08,35.06c.02.37-.01.75-.08,1.12-.06.36-.17.71-.32,1.04-.17.32-.38.62-.64.88-.35.39-.79.69-1.28.88-1.08.43-2.28.43-3.36,0-.52-.14-.99-.41-1.36-.8-.26-.25-.48-.55-.64-.88-.15-.33-.26-.68-.32-1.04-.07-.37-.09-.74-.08-1.12v-2.4c-.02-.37.01-.75.08-1.12.06-.36.17-.71.32-1.04.17-.32.38-.62.64-.88.35-.39.79-.69,1.28-.88.54-.2,1.11-.31,1.68-.32.58-.03,1.15.08,1.68.32.47.22.91.52,1.28.88.26.25.48.55.64.88.15.33.26.68.32,1.04.07.37.09.74.08,1.12v1.2c.07.37.09.74.08,1.12ZM66.44,32.66c0-.32-.08-.56-.08-.72,0-.15-.06-.29-.16-.4-.08-.08-.08-.16-.16-.24-.09-.15-.24-.26-.4-.32-.4-.21-.88-.21-1.28,0-.15.09-.28.19-.4.32-.08.08-.08.16-.16.24s-.08.24-.16.4c0,.16-.08.4-.08.72v2.4c0,.32.08.56.08.72,0,.15.06.29.16.4.08.08.08.16.16.24.09.15.24.26.4.32.4.21.88.21,1.28,0,.15-.09.28-.19.4-.32.08-.08.08-.16.16-.24s.08-.24.16-.4c0-.16.08-.4.08-.72v-2.4Z"/>
    </g>
    <g>
      <path class="cls-3" d="M40.86,58.88h-1.6l-1.28-3.91-1.28,3.92h-1.6l-2.16-7.92h2.08l1.04,4.16,1.28-4.16h1.36l1.28,4.16,1.04-4.16h2.08l-2.24,7.91Z"/>
      <path class="cls-3" d="M48.06,58.88l-.4-1.2h-2.4l-.4,1.2h-2l2.88-7.91h1.52l2.88,7.91h-2.08ZM46.54,53.93l-.72,2.16h1.36l-.64-2.16Z"/>
      <path class="cls-3" d="M56.05,57.53c-.17.3-.38.57-.64.8-.27.24-.6.4-.96.48-.39.09-.8.15-1.2.16-.57.01-1.14-.07-1.68-.24-.51-.16-.97-.43-1.36-.8l1.28-1.28c.22.21.5.35.8.4.31.09.63.15.96.16.72,0,1.12-.24,1.12-.72,0-.17-.06-.34-.16-.48-.17-.11-.36-.19-.56-.24l-.96-.16c-.6-.04-1.17-.29-1.6-.72-.41-.43-.61-1.01-.56-1.6,0-.36.08-.72.24-1.04.14-.3.33-.57.56-.8.26-.23.56-.42.88-.56.38-.14.79-.19,1.2-.16.52,0,1.03.08,1.52.24.44.16.85.41,1.2.72l-1.2,1.2c-.11-.13-.25-.24-.4-.32-.16-.08-.24-.08-.4-.16-.16,0-.24-.08-.4-.08h-.31c-.14-.02-.28,0-.4.08-.08.08-.24.08-.32.16s-.16.16-.16.24-.08.16-.08.24v.16c0,.09.07.15.16.16.08.08.16.08.24.16s.16.08.32.08l.96.16c.59.05,1.14.27,1.6.64.21.2.38.45.48.72.1.31.15.63.16.96-.01.5-.12.98-.32,1.44Z"/>
      <path class="cls-3" d="M61.01,52.65v6.24h-1.92v-6.24h-1.92v-1.76h5.84v1.76h-2Z"/>
      <path class="cls-3" d="M67.88,58.88l-.4-1.2h-2.48l-.4,1.2h-2.08l2.88-7.91h1.52l2.88,7.91h-1.92ZM66.28,53.93l-.72,2.16h1.36l-.64-2.16Z"/>
      <path class="cls-3" d="M76.28,56.97c-.08.41-.31.78-.64,1.04-.32.31-.7.56-1.12.72-.39.13-.79.19-1.2.16-.41.01-.82-.07-1.2-.24-.35-.17-.67-.38-.96-.64-.21-.17-.37-.39-.48-.64-.08-.24-.16-.48-.24-.8-.07-.26-.09-.53-.08-.8v-1.76c-.02-.27,0-.54.08-.8.08-.24.16-.56.24-.8.09-.26.25-.49.48-.64.28-.27.6-.48.96-.64.4-.17.84-.25,1.28-.24.46,0,.92.08,1.36.24.35.14.67.33.96.56.26.24.45.54.56.88.15.3.24.62.24.96h-2c-.04-.26-.19-.49-.4-.64-.22-.14-.46-.22-.72-.24-.16-.01-.33.01-.48.08-.12.06-.23.14-.32.24-.08.08-.08.16-.16.24,0,.08-.08.16-.08.32s-.08.32-.08.56v1.76c-.02.19,0,.38.08.56,0,.16.08.24.08.32s.08.16.16.24c.09.1.2.18.32.24.15.07.32.09.48.08.19.02.38,0,.56-.08.12-.06.23-.14.32-.24.1-.12.18-.26.24-.4.07-.15.09-.32.08-.48v-.08h-1.2v-1.6h3.04v1.12c0,.48-.06.97-.16,1.44Z"/>
      <path class="cls-3" d="M77.8,58.88v-7.91h5.44v1.76h-3.44v1.36h2.96v1.76h-2.96v1.36h3.44v1.76h-5.44v-.08Z"/>
    </g>
  </g>
</svg>