<?xml version="1.0" encoding="UTF-8"?>
<svg id="Layer_1" data-name="Layer 1" xmlns="http://www.w3.org/2000/svg" viewBox="0 0 90 90">
  <defs>
    <style>
      .cls-1, .cls-2, .cls-3, .cls-4 {
        fill: none;
      }

      .cls-5 {
        isolation: isolate;
      }

      .cls-2 {
        stroke-width: 2.1px;
      }

      .cls-2, .cls-3 {
        stroke: #fff;
        stroke-linecap: round;
        stroke-linejoin: round;
      }

      .cls-6 {
        fill: #fff;
      }

      .cls-3 {
        stroke-width: 3px;
      }

      .cls-4 {
        stroke: #000;
        stroke-miterlimit: 10;
      }
    </style>
  </defs>
  <path class="cls-2" d="M37.36,47.27c0-5.01,8.11-14.96,8.11-14.96,0,0,8.11,9.94,8.11,14.96.02,4.37-3.5,7.93-7.87,7.96h0s-.24,0-.24,0c-4.37.11-8-3.34-8.11-7.71,0,0,0,0,0,0v-.24Z"/>
  <path class="cls-3" d="M71.97,22.53c12.52,14.63,10.81,36.63-3.82,49.15-12.64,10.82-31.17,11.19-44.24.9M17.07,65.41h0c-11.18-15.67-7.55-37.43,8.12-48.61,12.11-8.65,28.38-8.65,40.49,0"/>
  <path class="cls-3" d="M70.78,28.5v-6.68h6.68"/>
  <path class="cls-3" d="M19.22,60v6.68h-6.68"/>
  <circle class="cls-6" cx="19.7" cy="20.38" r="11.93"/>
  <circle class="cls-6" cx="69.35" cy="68.6" r="12.89"/>
  <path d="M61.3,67.53c-.41-.45-.62-1.05-.59-1.66v-4.49h1.37v4.59c-.04.28.03.56.2.78.16.21.44.29.68.2.24,0,.48-.08.68-.2.12-.24.19-.51.2-.78v-4.59h1.37v4.59c.02.58-.19,1.14-.59,1.56-.46.39-1.05.6-1.66.59-.61.03-1.21-.18-1.67-.59ZM67.55,68.02l-1.95-6.64h1.47l1.07,4.79,1.08-4.79h1.47l-1.96,6.64h-1.17ZM70.59,76.27c-.41-.45-.62-1.05-.59-1.66v-4.59h1.37v4.59c-.04.28.03.56.2.78.16.21.44.29.68.2.24,0,.48-.08.68-.2.12-.24.19-.51.2-.78v-4.59h1.37v4.59c.02.58-.19,1.14-.59,1.56-.46.39-1.05.6-1.66.59-.6.09-1.21-.09-1.67-.49ZM75.48,76.76v-6.64h3.71v1.07h-2.35v1.76h2.05v1.07h-2.05v2.74h-1.37Z"/>
  <path class="cls-4" d="M65.05,72.89l9.55-8.59"/>
  <path class="cls-2" d="M45.48,49.5v-7.64"/>
  <path class="cls-2" d="M41.66,45.68h7.64"/>
  <g class="cls-5">
    <path d="M17.77,24.38l-1.53-3.12h-1.1v3.12h-1.53v-7.83h3.07c1.6,0,2.54,1.09,2.54,2.4,0,1.1-.67,1.78-1.43,2.06l1.75,3.38h-1.77ZM16.58,17.91h-1.44v2.07h1.44c.67,0,1.11-.43,1.11-1.03s-.44-1.03-1.11-1.03Z"/>
    <path d="M25.55,23.59c-.55.55-1.22.86-2.11.86s-1.57-.31-2.12-.86c-.79-.79-.77-1.77-.77-3.12s-.02-2.33.77-3.12c.55-.55,1.23-.86,2.12-.86s1.56.31,2.11.86c.79.79.78,1.77.78,3.12s.01,2.33-.78,3.12ZM24.42,18.26c-.22-.25-.56-.42-.98-.42s-.77.17-.99.42c-.3.33-.37.69-.37,2.2s.08,1.87.37,2.2c.22.25.57.42.99.42s.76-.17.98-.42c.3-.33.39-.69.39-2.2s-.09-1.87-.39-2.2Z"/>
  </g>
  <rect class="cls-1" width="90" height="90"/>
</svg>