<?xml version="1.0" encoding="UTF-8"?>
<svg id="Layer_1" data-name="Layer 1" xmlns="http://www.w3.org/2000/svg" viewBox="0 0 90 90">
  <defs>
    <style>
      .cls-1, .cls-2, .cls-3, .cls-4, .cls-5 {
        fill: none;
      }

      .cls-2, .cls-3 {
        stroke-linejoin: round;
      }

      .cls-2, .cls-3, .cls-4 {
        stroke-linecap: round;
      }

      .cls-2, .cls-3, .cls-4, .cls-5 {
        stroke: #fff;
      }

      .cls-2, .cls-4, .cls-5 {
        stroke-width: 2px;
      }

      .cls-3 {
        stroke-width: 1.5px;
      }

      .cls-6, .cls-7 {
        fill: #fff;
      }

      .cls-8, .cls-7 {
        opacity: .5;
      }

      .cls-4, .cls-5 {
        stroke-miterlimit: 10;
      }

      .cls-7 {
        isolation: isolate;
      }
    </style>
  </defs>
  <g>
    <path class="cls-5" d="M46.18,50.72c-2.32-2.21-5.4-3.44-8.6-3.43-3.21-.04-6.3,1.2-8.6,3.43-2.22,2.19-3.49,5.17-3.51,8.29,0,3.12,1.26,6.12,3.51,8.29,2.32,2.21,5.4,3.44,8.6,3.43,3.21.04,6.3-1.2,8.6-3.43,2.25-2.17,3.51-5.16,3.51-8.29-.02-3.12-1.28-6.1-3.5-8.29Z"/>
    <path class="cls-7" d="M27.45,66.18c.38.54.81,1.05,1.28,1.51l-4.06,3.35c-.17.16-.41.22-.64.16-.25,0-.48-.12-.64-.32-.15-.18-.23-.4-.24-.64.08-.24.16-.56.4-.64l3.9-3.43Z"/>
    <path class="cls-6" d="M47.93,66.18c-.4.56-.88,1.04-1.28,1.51l3.98,3.35c.2.16.47.22.72.16.24-.02.47-.14.64-.32.16-.17.22-.41.16-.64,0-.25-.12-.48-.32-.64l-3.9-3.43Z"/>
    <path class="cls-6" d="M26.66,70.48c.38.88.57,1.83.56,2.79.02,3.85-3.09,6.98-6.93,7s-6.98-3.09-7-6.93,3.09-6.98,6.93-7c1.45,0,2.86.44,4.05,1.27l1.04-.88c-1.42-1.08-3.16-1.67-4.94-1.67-4.49,0-8.13,3.64-8.13,8.13s3.64,8.13,8.13,8.13,8.13-3.64,8.13-8.13h0c.01-1.25-.29-2.48-.88-3.58l-.96.87Z"/>
    <path class="cls-6" d="M27.45,66.18c.38.54.81,1.05,1.28,1.51l-4.06,3.35c-.17.16-.41.22-.64.16-.25,0-.48-.12-.64-.32-.15-.18-.23-.4-.24-.64.08-.24.16-.56.4-.64l3.9-3.43Z"/>
    <path class="cls-3" d="M21.64,78.37c-3.25,0-5.89-2.62-5.9-5.87,0-.01,0-.02,0-.03"/>
    <path class="cls-6" d="M48.57,70.48c-.38.88-.57,1.83-.56,2.79-.02,3.85,3.09,6.98,6.93,7s6.98-3.09,7-6.93-3.09-6.98-6.93-7c-1.45,0-2.86.44-4.05,1.27l-1.04-.88c1.42-1.08,3.16-1.67,4.94-1.67,4.49,0,8.13,3.64,8.13,8.13,0,4.49-3.64,8.13-8.13,8.13-4.46,0-8.08-3.59-8.13-8.05-.01-1.25.29-2.48.88-3.58l.96.8Z"/>
    <path class="cls-3" d="M54.06,77.97c3.25,0,5.89-2.62,5.9-5.87,0-.01,0-.02,0-.03"/>
    <path class="cls-2" d="M40.04,67.3c3.25,0,5.89-2.62,5.9-5.87,0-.01,0-.02,0-.03"/>
  </g>
  <path class="cls-4" d="M12.87,43.23V9.69"/>
  <g>
    <path class="cls-6" d="M22.11,18.69l-1.51-3.11h-.72v3.11h-2.07v-8.29h3.35c.41-.01.82.07,1.2.24.34.14.64.36.88.64.23.26.42.56.56.88.14.33.19.68.16,1.04.02.27,0,.54-.08.8-.06.23-.17.45-.32.64-.14.18-.3.34-.48.48-.15.12-.31.22-.48.32l1.83,3.51h-2.32v-.24ZM21.71,12.47c-.17-.16-.4-.25-.64-.24h-1.2v1.67h1.2c.24.02.47-.07.64-.24.14-.15.23-.35.24-.56,0-.24-.08-.46-.24-.64h0Z"/>
    <path class="cls-6" d="M25.54,18.69v-8.29h5.66v1.83h-3.58v1.43h3.11v1.83h-3.11v1.43h3.58v1.83h-5.66v-.08Z"/>
    <path class="cls-6" d="M36.3,12.24v6.53h-2.07v-6.53h-2.07v-1.83h6.13v1.83h-1.99Z"/>
    <path class="cls-6" d="M43.47,18.69l-.4-1.27h-2.55l-.4,1.27h-2.15l3.03-8.37h1.59l3.03,8.37h-2.15ZM41.87,13.51l-.8,2.23h1.43l-.63-2.23Z"/>
    <path class="cls-6" d="M46.5,18.69v-8.29h2.07v8.37h-2.07v-.08Z"/>
    <path class="cls-6" d="M54.94,18.69l-2.71-4.22v4.22h-2.07v-8.29h1.83l2.71,4.22v-4.22h2.07v8.37h-1.83v-.08Z"/>
    <path class="cls-6" d="M63.79,17.26c-.15.34-.4.62-.72.8-.3.24-.66.4-1.04.48-1,.24-2.04.21-3.03-.08-.55-.17-1.04-.47-1.43-.88l1.28-1.27c.23.25.54.42.88.48.34.09.69.15,1.04.16.8,0,1.2-.24,1.2-.72.01-.17-.05-.35-.16-.48-.17-.11-.36-.19-.56-.24l-.96-.16c-.62-.04-1.21-.29-1.67-.72-.41-.46-.61-1.06-.56-1.67,0-.36.08-.72.24-1.04.12-.33.34-.61.64-.8.28-.25.6-.44.96-.56.4-.16.84-.24,1.28-.24.54-.01,1.08.07,1.59.24.47.14.89.42,1.2.8l-1.35,1.2c-.11-.13-.25-.24-.4-.32-.16-.08-.32-.08-.4-.16-.16,0-.24-.08-.4-.08h-.32c-.16-.01-.33.01-.48.08-.16.08-.24.08-.32.16s-.16.16-.16.24-.08.16-.08.24v.16c0,.08.08.16.16.24s.16.08.24.16c.09.06.21.09.32.08l1.04.16c.62.04,1.21.29,1.67.71.23.22.4.49.48.8.1.34.15.69.16,1.04-.04.41-.15.82-.32,1.2Z"/>
  </g>
  <g class="cls-8">
    <path class="cls-6" d="M17.89,29.84v-8.37h5.66v1.83h-3.59v1.43h3.11v1.83h-3.11v1.43h3.58v1.83h-5.66Z"/>
    <path class="cls-6" d="M30.32,28.41c-.15.34-.4.62-.72.8-.3.24-.66.4-1.04.48-1,.24-2.04.21-3.03-.08-.55-.17-1.04-.47-1.43-.88l1.28-1.28c.23.25.54.42.88.48.34.09.69.15,1.04.16.8,0,1.2-.24,1.2-.72.01-.17-.05-.35-.16-.48-.17-.11-.36-.19-.56-.24l-1.04-.16c-.62-.04-1.21-.29-1.67-.72-.41-.46-.61-1.06-.56-1.67,0-.36.08-.72.24-1.04.12-.33.34-.61.64-.8.28-.25.6-.44.96-.56.41-.16.84-.24,1.28-.24.54-.01,1.08.07,1.59.24.47.14.89.42,1.2.8l-1.2,1.2c-.11-.13-.25-.24-.4-.32-.16-.08-.32-.08-.4-.16-.12-.07-.26-.1-.4-.08h-.32c-.16-.01-.33.01-.48.08-.16.08-.24.08-.32.16s-.16.16-.16.24-.08.16-.08.24v.16c0,.08.08.16.16.24s.16.08.24.16c.09.06.21.09.32.08l1.04.16c.62.04,1.21.29,1.67.72.23.22.4.49.48.8.1.34.15.69.16,1.04-.07.41-.2.81-.39,1.19Z"/>
    <path class="cls-6" d="M37.33,28.41c-.15.34-.4.62-.72.8-.3.24-.66.4-1.04.48-1,.24-2.04.21-3.03-.08-.55-.17-1.04-.47-1.43-.88l1.28-1.28c.23.25.54.42.88.48.34.09.69.15,1.04.16.8,0,1.2-.24,1.2-.72.01-.17-.05-.35-.16-.48-.17-.11-.36-.19-.56-.24l-1.04-.16c-.62-.04-1.21-.29-1.67-.72-.33-.52-.5-1.13-.48-1.75,0-.36.08-.72.24-1.04.12-.33.34-.61.64-.8.28-.25.6-.44.96-.56.41-.16.84-.24,1.28-.24.54-.01,1.08.07,1.59.24.47.14.89.42,1.2.8l-1.35,1.28c-.11-.13-.25-.24-.4-.32-.16-.08-.32-.08-.4-.16-.12-.07-.26-.1-.4-.08h-.32c-.16-.01-.33.01-.48.08-.16.08-.24.08-.32.16s-.16.16-.16.24-.08.16-.08.24v.16c0,.08.08.16.16.24s.16.08.24.16c.09.06.21.09.32.08l1.04.16c.62.04,1.21.29,1.67.72.23.22.4.49.48.8.1.34.15.69.16,1.04-.05.41-.15.81-.32,1.19Z"/>
    <path class="cls-6" d="M38.93,29.84v-8.37h5.66v1.83h-3.58v1.43h3.11v1.83h-3.11v1.43h3.58v1.83h-5.66Z"/>
    <path class="cls-6" d="M50.8,29.84l-2.71-4.22v4.22h-2.07v-8.37h1.83l2.71,4.22v-4.22h2.07v8.37h-1.83Z"/>
    <path class="cls-6" d="M57.89,23.31v6.53h-2.07v-6.53h-2.07v-1.83h6.14v1.83h-1.99Z"/>
    <path class="cls-6" d="M61.16,29.84v-8.37h2.07v8.37h-2.07Z"/>
    <path class="cls-6" d="M69.52,29.84l-.4-1.28h-2.55l-.4,1.28h-2.15l3.03-8.37h1.59l3.03,8.37h-2.15ZM67.92,24.67l-.8,2.23h1.43l-.63-2.23Z"/>
    <path class="cls-6" d="M72.55,29.84v-8.37h2.07v6.53h3.51v1.83h-5.58Z"/>
  </g>
  <g>
    <path class="cls-6" d="M23.63,41v-3.98l-1.2,2.07h-1.27l-1.2-2.07v3.98h-2.07v-8.37h1.99l1.91,3.67,1.92-3.67h1.99v8.37h-2.07Z"/>
    <path class="cls-6" d="M27.37,41v-8.37h2.07v8.37h-2.07Z"/>
    <path class="cls-6" d="M35.82,41l-2.71-4.22v4.22h-2.07v-8.37h1.83l2.71,4.22v-4.22h2.07v8.37h-1.83Z"/>
    <path class="cls-6" d="M39.33,41v-8.37h5.66v1.83h-3.58v1.43h3.11v1.83h-3.11v1.43h3.58v1.83h-5.66Z"/>
    <path class="cls-6" d="M50.64,41l-1.51-3.11h-.72v3.11h-2.07v-8.37h3.35c.41-.01.82.07,1.2.24.34.14.64.36.88.64.23.26.42.56.56.88.14.33.19.68.16,1.04.02.27,0,.54-.08.8-.06.23-.17.45-.32.64-.14.18-.3.34-.48.48-.14.13-.3.24-.48.32l1.83,3.51h-2.32v-.16ZM50.32,34.78c-.17-.16-.4-.25-.64-.24h-1.2v1.67h1.2c.24.02.47-.07.64-.24.14-.15.23-.35.24-.56.02-.24-.06-.47-.24-.64h0Z"/>
    <path class="cls-6" d="M58.77,41l-.4-1.28h-2.55l-.4,1.28h-2.15l3.03-8.37h1.59l3.03,8.37h-2.15ZM57.1,35.82l-.72,2.23h1.43l-.72-2.23Z"/>
    <path class="cls-6" d="M61.71,41v-8.37h2.07v6.53h3.51v1.83h-5.58Z"/>
    <path class="cls-6" d="M73.82,39.56c-.15.34-.4.62-.72.8-.3.24-.66.4-1.04.48-1,.24-2.04.21-3.03-.08-.55-.17-1.04-.47-1.43-.88l1.28-1.28c.23.25.54.42.88.48.34.09.69.15,1.04.16.8,0,1.2-.24,1.2-.72.01-.17-.05-.35-.16-.48-.17-.11-.36-.19-.56-.24l-1.04-.16c-.62-.04-1.21-.29-1.67-.72-.41-.46-.61-1.06-.56-1.67,0-.36.08-.72.24-1.04.12-.33.34-.61.64-.8.28-.25.6-.44.96-.56.4-.16.84-.24,1.28-.24.54-.01,1.08.07,1.59.24.47.14.89.42,1.2.8l-1.2,1.2c-.11-.13-.25-.24-.4-.32-.16-.08-.32-.08-.4-.16-.16,0-.24-.08-.4-.08h-.32c-.16-.01-.33.01-.48.08-.16.08-.24.08-.32.16s-.16.16-.16.24-.08.16-.08.24v.16c0,.08.08.16.16.24s.16.08.24.16c.09.06.21.09.32.08l1.04.16c.62.04,1.21.29,1.67.72.23.22.4.49.48.8.1.34.15.69.16,1.04-.11.4-.24.8-.4,1.19Z"/>
  </g>
  <rect class="cls-1" width="90" height="90"/>
</svg>