<svg xmlns="http://www.w3.org/2000/svg" width="20.001" height="20.023" viewBox="0 0 20.001 20.023">
    <defs>
        <style>
            .cls-1{fill:#fff}
        </style>
    </defs>
    <g id="Group_6643" transform="translate(-6.012 -5.997)">
        <path id="Path_2629" d="M6.012 26.02l1.4-4.975a9.984 9.984 0 1 1 3.73 3.654zm5.388-3.138l.306.187a8.291 8.291 0 1 0-2.669-2.609l.206.321-.807 2.865z" class="cls-1"/>
        <path id="Path_2630" d="M15.2 13.45l-.648-.035a.784.784 0 0 0-.557.191 2.953 2.953 0 0 0-.971 1.488 4.51 4.51 0 0 0 1.046 3.535 10.516 10.516 0 0 0 5.668 4.121 2.762 2.762 0 0 0 2.339-.289 2.092 2.092 0 0 0 .91-1.328l.1-.483a.336.336 0 0 0-.188-.375l-2.19-1.01a.336.336 0 0 0-.406.1l-.86 1.115a.246.246 0 0 1-.277.082 6.734 6.734 0 0 1-3.644-3.118.249.249 0 0 1 .031-.277l.822-.951a.336.336 0 0 0 .055-.352l-.944-2.209a.336.336 0 0 0-.286-.205z" class="cls-1" transform="translate(-1.979 -2.114)"/>
    </g>
</svg>
