<?xml version="1.0" encoding="UTF-8"?>
<svg id="Layer_1" data-name="Layer 1" xmlns="http://www.w3.org/2000/svg" viewBox="0 0 150 80.71">
  <defs>
    <style>
      .cls-1 {
        fill: #fff;
      }

      .cls-2 {
        fill: none;
        stroke: #10357f;
        stroke-width: .41px;
      }

      .cls-3 {
        fill: #10357f;
      }
    </style>
  </defs>
  <g>
    <rect class="cls-3" x="42.42" y="-37.4" width="58.48" height="138.32" transform="translate(103.43 -39.9) rotate(90)"/>
    <polygon class="cls-1" points="116.53 51.38 116.53 19.37 108.87 19.37 108.87 12.06 131.51 12.06 131.51 19.37 123.84 19.37 123.84 51.38 116.53 51.38"/>
    <polygon class="cls-1" points="103.96 51.38 103.96 12.06 96.65 12.06 96.65 39.18 81.49 12.06 73.78 12.06 73.78 51.38 81.09 51.38 81.09 24.06 96.36 51.38 103.96 51.38"/>
    <polygon class="cls-1" points="66.93 51.38 66.93 44.4 53.65 44.4 53.65 35.21 66.93 35.21 66.93 28.23 53.65 28.23 53.65 19.04 66.93 19.04 66.93 12.06 46.68 12.06 46.68 51.38 66.93 51.38"/>
    <polygon class="cls-1" points="41.77 51.38 27.13 29.88 41.13 12.06 32.85 12.06 19.44 30.28 32.99 51.38 41.77 51.38"/>
    <rect class="cls-1" x="11.96" y="12.06" width="7.31" height="39.32"/>
    <g>
      <g>
        <path class="cls-3" d="M4.09,71.95h4.17v-3.9h1.46v9.98h-1.46v-4.66h-4.17v4.66h-1.46v-9.98h1.46v3.9Z"/>
        <path class="cls-3" d="M13.39,72.99c0-1.4.5-2.61,1.5-3.62.99-1.01,2.19-1.51,3.58-1.51s2.56.51,3.55,1.52c.99,1.02,1.49,2.24,1.49,3.66s-.5,2.65-1.49,3.65c-1,1-2.2,1.51-3.62,1.51-1.25,0-2.37-.45-3.37-1.34-1.09-.99-1.64-2.28-1.64-3.88ZM14.87,73.01c0,1.1.36,2.01,1.08,2.72.71.71,1.54,1.07,2.48,1.07,1.02,0,1.87-.36,2.57-1.09.7-.73,1.05-1.62,1.05-2.68s-.34-1.96-1.03-2.68c-.69-.72-1.53-1.09-2.54-1.09s-1.86.36-2.55,1.09c-.69.71-1.04,1.6-1.04,2.65Z"/>
        <path class="cls-3" d="M28.64,68.05v6.01c0,.86.14,1.48.41,1.88.4.57.97.86,1.71.86s1.31-.29,1.72-.86c.27-.38.41-1.01.41-1.88v-6.01h1.46v6.42c0,1.05-.32,1.92-.95,2.6-.71.76-1.59,1.14-2.63,1.14s-1.92-.38-2.63-1.14c-.63-.68-.95-1.55-.95-2.6v-6.42h1.46Z"/>
        <path class="cls-3" d="M43.96,69.53l-1.18.72c-.22-.4-.43-.65-.63-.78-.21-.14-.48-.21-.81-.21-.4,0-.74.12-1.01.36-.27.23-.4.53-.4.88,0,.49.35.88,1.05,1.18l.97.41c.79.33,1.36.73,1.72,1.2s.55,1.05.55,1.74c0,.92-.3,1.68-.89,2.27-.6.6-1.34.9-2.22.9-.84,0-1.53-.26-2.08-.77-.54-.51-.88-1.23-1.01-2.16l1.48-.34c.07.59.18.99.35,1.21.3.43.74.65,1.32.65.46,0,.83-.16,1.13-.47.3-.31.45-.71.45-1.2,0-.19-.03-.37-.08-.53-.05-.16-.13-.31-.24-.45-.11-.14-.25-.26-.43-.38-.18-.12-.38-.23-.63-.34l-.93-.4c-1.32-.58-1.99-1.42-1.99-2.53,0-.75.28-1.38.83-1.88.56-.51,1.25-.76,2.07-.76,1.12,0,1.99.56,2.61,1.68Z"/>
        <path class="cls-3" d="M53.15,69.46h-3.88v2.4h3.77v1.41h-3.77v3.33h3.88v1.42h-5.34v-9.98h5.34v1.41Z"/>
        <path class="cls-3" d="M62.22,72.99c0-1.4.5-2.61,1.5-3.62.99-1.01,2.19-1.51,3.58-1.51s2.56.51,3.55,1.52c.99,1.02,1.49,2.24,1.49,3.66s-.5,2.65-1.49,3.65c-1,1-2.2,1.51-3.62,1.51-1.25,0-2.37-.45-3.37-1.34-1.09-.99-1.64-2.28-1.64-3.88ZM63.69,73.01c0,1.1.36,2.01,1.08,2.72.71.71,1.54,1.07,2.48,1.07,1.02,0,1.87-.36,2.57-1.09.7-.73,1.05-1.62,1.05-2.68s-.34-1.96-1.03-2.68c-.69-.72-1.53-1.09-2.54-1.09s-1.86.36-2.55,1.09c-.69.71-1.04,1.6-1.04,2.65Z"/>
        <path class="cls-3" d="M80.83,69.46h-3.37v2.4h3.25v1.41h-3.25v4.75h-1.46v-9.98h4.83v1.41Z"/>
        <path class="cls-3" d="M91.61,73.97v4.05h-1.46v-9.98h1.65c.81,0,1.42.06,1.84.17.42.12.79.34,1.1.66.56.56.83,1.27.83,2.12,0,.91-.3,1.64-.89,2.17-.59.53-1.39.8-2.4.8h-.68ZM91.61,72.58h.55c1.34,0,2.01-.53,2.01-1.6s-.69-1.54-2.07-1.54h-.48v3.14Z"/>
        <path class="cls-3" d="M100.38,68.05v6.01c0,.86.14,1.48.41,1.88.4.57.97.86,1.71.86s1.31-.29,1.72-.86c.27-.38.41-1.01.41-1.88v-6.01h1.46v6.42c0,1.05-.32,1.92-.95,2.6-.71.76-1.59,1.14-2.63,1.14s-1.92-.38-2.63-1.14c-.63-.68-.95-1.55-.95-2.6v-6.42h1.46Z"/>
        <path class="cls-3" d="M113.51,73.77l3,4.25h-1.79l-2.76-4.08h-.26v4.08h-1.46v-9.98h1.71c1.28,0,2.2.25,2.77.74.63.55.94,1.28.94,2.18,0,.71-.2,1.31-.59,1.82-.39.51-.91.83-1.55.98ZM111.7,72.63h.46c1.38,0,2.07-.55,2.07-1.64,0-1.02-.67-1.53-2.02-1.53h-.52v3.17Z"/>
        <path class="cls-3" d="M121.26,68.05v9.98h-1.46v-9.98h1.46Z"/>
        <path class="cls-3" d="M128.09,69.46v8.56h-1.46v-8.56h-2.22v-1.41h5.9v1.41h-2.22Z"/>
        <path class="cls-3" d="M136.03,73.71l-3.16-5.67h1.68l2.21,3.99,2.22-3.99h1.68l-3.17,5.67v4.31h-1.46v-4.31Z"/>
      </g>
      <g>
        <path class="cls-2" d="M4.09,71.95h4.17v-3.9h1.46v9.98h-1.46v-4.66h-4.17v4.66h-1.46v-9.98h1.46v3.9Z"/>
        <path class="cls-2" d="M13.39,72.99c0-1.4.5-2.61,1.5-3.62.99-1.01,2.19-1.51,3.58-1.51s2.56.51,3.55,1.52c.99,1.02,1.49,2.24,1.49,3.66s-.5,2.65-1.49,3.65c-1,1-2.2,1.51-3.62,1.51-1.25,0-2.37-.45-3.37-1.34-1.09-.99-1.64-2.28-1.64-3.88ZM14.87,73.01c0,1.1.36,2.01,1.08,2.72.71.71,1.54,1.07,2.48,1.07,1.02,0,1.87-.36,2.57-1.09.7-.73,1.05-1.62,1.05-2.68s-.34-1.96-1.03-2.68c-.69-.72-1.53-1.09-2.54-1.09s-1.86.36-2.55,1.09c-.69.71-1.04,1.6-1.04,2.65Z"/>
        <path class="cls-2" d="M28.64,68.05v6.01c0,.86.14,1.48.41,1.88.4.57.97.86,1.71.86s1.31-.29,1.72-.86c.27-.38.41-1.01.41-1.88v-6.01h1.46v6.42c0,1.05-.32,1.92-.95,2.6-.71.76-1.59,1.14-2.63,1.14s-1.92-.38-2.63-1.14c-.63-.68-.95-1.55-.95-2.6v-6.42h1.46Z"/>
        <path class="cls-2" d="M43.96,69.53l-1.18.72c-.22-.4-.43-.65-.63-.78-.21-.14-.48-.21-.81-.21-.4,0-.74.12-1.01.36-.27.23-.4.53-.4.88,0,.49.35.88,1.05,1.18l.97.41c.79.33,1.36.73,1.72,1.2s.55,1.05.55,1.74c0,.92-.3,1.68-.89,2.27-.6.6-1.34.9-2.22.9-.84,0-1.53-.26-2.08-.77-.54-.51-.88-1.23-1.01-2.16l1.48-.34c.07.59.18.99.35,1.21.3.43.74.65,1.32.65.46,0,.83-.16,1.13-.47.3-.31.45-.71.45-1.2,0-.19-.03-.37-.08-.53-.05-.16-.13-.31-.24-.45-.11-.14-.25-.26-.43-.38-.18-.12-.38-.23-.63-.34l-.93-.4c-1.32-.58-1.99-1.42-1.99-2.53,0-.75.28-1.38.83-1.88.56-.51,1.25-.76,2.07-.76,1.12,0,1.99.56,2.61,1.68Z"/>
        <path class="cls-2" d="M53.15,69.46h-3.88v2.4h3.77v1.41h-3.77v3.33h3.88v1.42h-5.34v-9.98h5.34v1.41Z"/>
        <path class="cls-2" d="M62.22,72.99c0-1.4.5-2.61,1.5-3.62.99-1.01,2.19-1.51,3.58-1.51s2.56.51,3.55,1.52c.99,1.02,1.49,2.24,1.49,3.66s-.5,2.65-1.49,3.65c-1,1-2.2,1.51-3.62,1.51-1.25,0-2.37-.45-3.37-1.34-1.09-.99-1.64-2.28-1.64-3.88ZM63.69,73.01c0,1.1.36,2.01,1.08,2.72.71.71,1.54,1.07,2.48,1.07,1.02,0,1.87-.36,2.57-1.09.7-.73,1.05-1.62,1.05-2.68s-.34-1.96-1.03-2.68c-.69-.72-1.53-1.09-2.54-1.09s-1.86.36-2.55,1.09c-.69.71-1.04,1.6-1.04,2.65Z"/>
        <path class="cls-2" d="M80.83,69.46h-3.37v2.4h3.25v1.41h-3.25v4.75h-1.46v-9.98h4.83v1.41Z"/>
        <path class="cls-2" d="M91.61,73.97v4.05h-1.46v-9.98h1.65c.81,0,1.42.06,1.84.17.42.12.79.34,1.1.66.56.56.83,1.27.83,2.12,0,.91-.3,1.64-.89,2.17-.59.53-1.39.8-2.4.8h-.68ZM91.61,72.58h.55c1.34,0,2.01-.53,2.01-1.6s-.69-1.54-2.07-1.54h-.48v3.14Z"/>
        <path class="cls-2" d="M100.38,68.05v6.01c0,.86.14,1.48.41,1.88.4.57.97.86,1.71.86s1.31-.29,1.72-.86c.27-.38.41-1.01.41-1.88v-6.01h1.46v6.42c0,1.05-.32,1.92-.95,2.6-.71.76-1.59,1.14-2.63,1.14s-1.92-.38-2.63-1.14c-.63-.68-.95-1.55-.95-2.6v-6.42h1.46Z"/>
        <path class="cls-2" d="M113.51,73.77l3,4.25h-1.79l-2.76-4.08h-.26v4.08h-1.46v-9.98h1.71c1.28,0,2.2.25,2.77.74.63.55.94,1.28.94,2.18,0,.71-.2,1.31-.59,1.82-.39.51-.91.83-1.55.98ZM111.7,72.63h.46c1.38,0,2.07-.55,2.07-1.64,0-1.02-.67-1.53-2.02-1.53h-.52v3.17Z"/>
        <path class="cls-2" d="M121.26,68.05v9.98h-1.46v-9.98h1.46Z"/>
        <path class="cls-2" d="M128.09,69.46v8.56h-1.46v-8.56h-2.22v-1.41h5.9v1.41h-2.22Z"/>
        <path class="cls-2" d="M136.03,73.71l-3.16-5.67h1.68l2.21,3.99,2.22-3.99h1.68l-3.17,5.67v4.31h-1.46v-4.31Z"/>
      </g>
    </g>
  </g>
  <path class="cls-3" d="M147.3,6.05c-.13.31-.32.58-.55.82-.24.24-.51.42-.82.55-.31.13-.64.2-.99.2s-.68-.07-.99-.2c-.31-.13-.58-.32-.82-.55-.24-.24-.42-.51-.55-.82-.13-.31-.2-.64-.2-.99s.07-.68.2-.99c.13-.31.32-.58.55-.82.24-.24.51-.42.82-.55.31-.13.64-.2.99-.2s.68.07.99.2c.31.13.58.32.82.55.24.24.42.51.55.82.13.31.2.64.2.99s-.07.68-.2.99ZM146.93,4.22c-.11-.26-.27-.5-.47-.7-.2-.2-.43-.36-.69-.47-.26-.11-.54-.17-.83-.17s-.57.06-.83.17c-.26.11-.49.27-.69.47-.2.2-.35.43-.46.7-.11.27-.17.55-.17.84s.06.58.17.84c.11.26.27.5.46.7.2.2.43.36.69.47.26.11.54.17.83.17s.57-.06.83-.17c.26-.11.49-.27.69-.47s.36-.43.47-.7c.11-.27.17-.55.17-.84s-.06-.58-.17-.84ZM145.56,6.46l-.64-1.14h-.42v1.14h-.39v-2.81h.95c.24,0,.45.08.63.24.17.16.26.36.26.6,0,.2-.05.36-.16.49-.11.13-.25.22-.44.28l.67,1.19h-.45ZM145.4,4.14c-.1-.09-.23-.14-.38-.14h-.52v.98h.52c.16,0,.28-.05.38-.14.1-.09.15-.21.15-.35s-.05-.26-.15-.35Z"/>
</svg>