<?xml version="1.0" encoding="UTF-8"?>
<svg id="Layer_1" data-name="Layer 1" xmlns="http://www.w3.org/2000/svg" viewBox="0 0 90 90">
  <defs>
    <style>
      .cls-1, .cls-2 {
        fill: none;
      }

      .cls-3, .cls-4 {
        fill: #fff;
      }

      .cls-2 {
        stroke-linecap: round;
        stroke-width: 3px;
      }

      .cls-2, .cls-4 {
        stroke: #fff;
        stroke-miterlimit: 10;
      }
    </style>
  </defs>
  <rect class="cls-1" x="-.11" y=".27" width="90" height="90"/>
  <path class="cls-4" d="M63.07,50.83c.18.16.46.16.64,0l6.15-5.67c.19-.21.17-.53-.03-.72-.19-.18-.49-.18-.68,0l-5.83,5.35-1.68-1.28c-.22-.17-.55-.13-.72.09-.17.22-.13.53.08.71l2.08,1.52Z"/>
  <path class="cls-2" d="M75.69,16.55h-20.86v4.48h1.6v48.74s.16,8.55,8.55,8.87h.48c8.39-.32,8.55-8.87,8.55-8.87V21.03h1.6v-4.48h.08Z"/>
  <path class="cls-2" d="M56.51,21.03h17.58"/>
  <path class="cls-3" d="M51.08,74.48c-4.04,2.84-8.89,4.29-13.82,4.15-6.1-.25-11.83-2.96-15.9-7.51-4.34-4.78-6.53-11.14-6.07-17.58.4-6.39,2.72-13.34,6.71-20.7,1.13,2.71,1.67,5.62,1.6,8.55,0,.66.54,1.2,1.2,1.2.66,0,1.2-.54,1.2-1.2h0c0-14.14,9.27-14.46,9.59-14.46.66,0,1.2-.54,1.2-1.2,0-.66-.54-1.2-1.2-1.2-1.71-.13-3.34-.74-4.72-1.75-.56-.42-1.07-.9-1.52-1.44,2.66-3.54,5.54-6.9,8.63-10.06,4.45,4.55,8.44,9.52,11.91,14.86l.8-3.28c-3.3-4.72-6.99-9.16-11.03-13.26-.44-.46-1.04-.72-1.68-.72-.64-.02-1.25.24-1.68.72-2.98,3.06-5.76,6.32-8.31,9.75-1.39-2.89-2.05-6.07-1.92-9.27,0-.66-.54-1.2-1.2-1.2-.66,0-1.2.54-1.2,1.2,0,14.14-9.19,14.46-9.59,14.46-.66,0-1.2.54-1.2,1.2s.54,1.2,1.2,1.2c1.7.14,3.34.75,4.71,1.76.73.49,1.35,1.11,1.84,1.84-4.63,8.15-7.19,15.82-7.67,22.93-.49,7.09,1.93,14.08,6.71,19.34,4.49,5.05,10.83,8.05,17.58,8.31h.88c5.17,0,10.22-1.59,14.46-4.56l-1.52-2.08ZM18.4,25.74c3.05-1.59,5.34-4.32,6.39-7.59.47,1.4,1.15,2.71,2,3.92,0,.04.03.08.08.08,0,0,0,0,0,0,1.13,1.53,2.61,2.77,4.31,3.6-3.05,1.59-5.34,4.32-6.39,7.59-.41-1.25-1-2.44-1.76-3.52,0-.08-.08-.16-.16-.24-1.11-1.66-2.66-2.99-4.48-3.84Z"/>
  <path class="cls-3" d="M34.62,72.65c-12.14-2.24-13.42-15.18-13.42-15.74-.04-.66-.62-1.16-1.28-1.12-.66.04-1.16.62-1.12,1.28,0,.16,1.44,15.34,15.42,17.9h.24c.63,0,1.15-.49,1.2-1.12.06-.6-.38-1.14-.98-1.2-.02,0-.04,0-.06,0h0Z"/>
</svg>