<?xml version="1.0" encoding="UTF-8"?>
<svg id="Layer_1" data-name="Layer 1" xmlns="http://www.w3.org/2000/svg" viewBox="0 0 90 90">
  <defs>
    <style>
      .cls-1, .cls-2, .cls-3 {
        fill: none;
      }

      .cls-2 {
        opacity: .8;
      }

      .cls-2, .cls-3 {
        isolation: isolate;
        stroke: #fff;
        stroke-linecap: round;
        stroke-linejoin: round;
        stroke-width: 2px;
      }

      .cls-4 {
        fill: #fff;
      }
    </style>
  </defs>
  <rect class="cls-1" width="90" height="90"/>
  <g>
    <path class="cls-3" d="M12.21,13.88v62.23h65.58V13.88H12.21Z"/>
    <path class="cls-4" d="M29.39,39.4c-.06.06-.06.19-.13.26-.06.08-.16.13-.26.13-.08.05-.17.07-.26.06h-.58v.96h-.39v-2.45h.9c.11,0,.22.01.32.06.06.06.19.06.26.13.08.06.13.16.13.26.06.1.08.21.06.32.01.09-.01.18-.06.26ZM29.01,38.82c-.09-.08-.2-.13-.32-.13h-.51v.84h.51c.23.02.43-.14.45-.37.01-.13-.04-.25-.13-.34h0Z"/>
    <path class="cls-4" d="M31.58,39.92v.26c0,.06-.06.13-.06.19s-.06.13-.13.19-.19.13-.26.19c-.1.05-.21.07-.32.06-.11.02-.22,0-.32-.06-.1-.05-.18-.11-.26-.19,0-.06-.06-.13-.06-.19s-.06-.13-.06-.19v-1.16c0-.06.06-.13.06-.19s.06-.13.13-.19.19-.13.26-.19c.1-.05.21-.07.32-.06.11-.02.22,0,.32.06.1.05.18.11.26.19.06.06.13.13.13.19s.06.13.06.19v.58c0,.13-.06.19-.06.32ZM31.19,39.27v-.19c0-.06,0-.13-.06-.13,0-.06-.06-.06-.06-.13l-.13-.13c-.06,0-.13-.06-.19-.06-.07,0-.14.02-.19.06-.07,0-.12.06-.13.13-.04.03-.06.08-.06.13,0,.06-.06.06-.06.13v1.03c0,.06,0,.13.06.13,0,.06.06.06.06.13l.13.13c.06,0,.13.06.19.06.07,0,.14-.02.19-.06.07,0,.12-.06.13-.13.04-.03.06-.08.06-.13,0-.06.06-.06.06-.13v-.84h0Z"/>
    <path class="cls-4" d="M34.09,40.82h-.33l-.51-1.67-.51,1.67h-.32l-.64-2.45h.39l.45,1.74.52-1.74h.32l.51,1.74.45-1.74h.39l-.71,2.45Z"/>
    <path class="cls-4" d="M35.06,40.82v-2.45h1.54v.32h-1.16v.71h1.03v.32h-1.03v.71h1.16v.32s-1.54.07-1.54.07Z"/>
    <path class="cls-4" d="M38.41,40.82l-.51-1.03h-.45v1.03h-.39v-2.45h.97c.11,0,.22.01.32.06.06.06.19.06.26.13s.13.13.13.19c.05.08.07.17.06.26,0,.16-.05.31-.13.45-.06.12-.18.19-.32.19l.58,1.09h-.51s0,.06,0,.06ZM38.28,38.83c-.09-.08-.2-.13-.32-.13h-.51v.77h.51c.13,0,.19-.06.32-.13.08-.06.13-.16.13-.26,0-.13,0-.2-.13-.26h0Z"/>
    <path class="cls-4" d="M28.62,36.95c.06-.06.06-.19.13-.26.9-1.74,1.8-3.48,2.7-5.15.26-.51.58-1.09.84-1.61q.06-.19-.13-.19h-1.99c-.19,0-.26,0-.13-.19,1.16-2.19,2.25-4.31,3.41-6.5.08-.18.26-.28.45-.26h3.22c.07,0,.14.02.19.06.06.06-.06.13-.06.19-.97,1.48-1.94,2.96-2.96,4.38-.06.06-.13.13-.06.19s.13,0,.19,0h2.77c.06.06-.06.13-.06.13-1.93,2.06-3.84,4.15-5.73,6.24-.84.97-1.74,1.87-2.57,2.83-.06.06-.06.13-.19.13Z"/>
    <path class="cls-4" d="M38.79,29.88c-.01-1.85-.96-3.57-2.51-4.57-.13-.13-.13-.19-.06-.32.13-.19.26-.32.39-.51.06-.19.19-.13.32-.06.83.56,1.53,1.28,2.07,2.12.72,1.15,1.03,2.51.9,3.86-.18,2.97-2.36,5.43-5.28,5.98-1.37.27-2.78.12-4.05-.45-.06,0-.13-.06-.19-.06-.13-.06-.13-.13,0-.19l.58-.58c.06-.06.13-.13.26-.06.75.31,1.57.46,2.38.45,1.38-.07,2.68-.64,3.67-1.61,1.03-1.07,1.58-2.51,1.54-3.99Z"/>
    <path class="cls-4" d="M26.82,29.88c-.02-1.74.68-3.42,1.93-4.63,1.07-1.08,2.48-1.76,3.99-1.93h.13v.13c-.19.32-.32.64-.51.9-.06.06-.13.13-.19.13-1.92.4-3.46,1.84-3.99,3.73-.67,1.96-.11,4.13,1.42,5.53.14.1.18.29.08.43,0,0,0,.01-.01.02-.1.16-.18.34-.26.51q-.13.19-.26.06c-.82-.68-1.44-1.57-1.8-2.57-.4-.7-.58-1.51-.52-2.32Z"/>
    <path class="cls-4" d="M48.7,38.18v2.13h-.39v-2.13h-.64v-.32h1.67v.32h-.64Z"/>
    <path class="cls-4" d="M50.95,40.24l-.19-.51h-.97l-.19.51h-.39l.9-2.45h.32l.9,2.45h-.38ZM50.31,38.37l-.39,1.09h.77l-.39-1.09Z"/>
    <path class="cls-4" d="M53.21,40.24l-1.09-1.67v1.67h-.39v-2.45h.32l1.09,1.67v-1.67h.39v2.45h-.32Z"/>
    <path class="cls-4" d="M55.65,40.24l-.71-1.22-.39.51v.71h-.39v-2.45h.39v1.22l.97-1.22h.39l-.77.97.84,1.48h-.32Z"/>
    <path class="cls-4" d="M57.58,38.18v.71h1.03v.32h-1.03v1.03h-.39v-2.45h1.54v.32l-1.16.06h0Z"/>
    <path class="cls-4" d="M60.93,39.79c-.05.1-.11.18-.19.26-.06.06-.19.13-.26.19-.1.05-.21.07-.32.06-.11.02-.22,0-.32-.06-.19-.1-.35-.26-.45-.45-.05-.1-.07-.21-.06-.32v-1.61h.39v1.61c-.04.25.14.48.39.51.04,0,.09,0,.13,0,.14-.01.27-.06.39-.13.13-.06.13-.19.13-.39v-1.61h.39v1.61c-.2.06-.2.19-.2.32Z"/>
    <path class="cls-4" d="M61.57,40.24v-2.45h.39v2.12h1.16v.32h-1.54Z"/>
    <path class="cls-4" d="M63.5,40.24v-2.45h.39v2.12h1.16v.32h-1.54Z"/>
    <path class="cls-4" d="M59.83,35.93h-7.01l-1.54-1.74v-9.59h-.97v-1.03h1.99v10.23l.97,1.09h6.11l.9-.97v-10.36h1.93v1.03h-.9v9.72l-1.48,1.61Z"/>
    <path class="cls-4" d="M53.08,23.57h6.63v1.03h-6.63v-1.03Z"/>
    <path class="cls-4" d="M53.08,25.44h6.63v1.03h-6.63v-1.03Z"/>
    <path class="cls-4" d="M53.08,27.3h6.63v1.03h-6.63v-1.03Z"/>
    <path class="cls-4" d="M53.08,29.17h6.63v1.03h-6.63v-1.03Z"/>
    <path class="cls-4" d="M53.08,31.03h6.63v1.03h-6.63v-1.03Z"/>
    <path class="cls-4" d="M53.08,32.97h6.63v1.03h-6.63v-1.03Z"/>
    <path class="cls-4" d="M39.69,67.53v-1.42l-.51,1.03h-.26l-.52-1.03v1.42h-.32v-2.19h.32l.64,1.35.64-1.35h.32v2.19h-.32Z"/>
    <path class="cls-4" d="M40.59,67.53v-2.19h.32v2.19h-.32Z"/>
    <path class="cls-4" d="M42.78,67.53l-1.04-1.54v1.54h-.32v-2.19h.32l1.04,1.54v-1.54h.32v2.19h-.32Z"/>
    <path class="cls-4" d="M43.75,67.53v-2.19h1.35v.32h-1.04v.64h.9v.32h-.9v.64h1.04v.32l-1.35-.06h0Z"/>
    <path class="cls-4" d="M46.77,67.53l-.45-.9h-.39v.9h-.32v-2.19h.84c.13,0,.19,0,.26.06.06,0,.13.06.19.13s.13.13.13.19.06.19.06.26c-.01.14-.06.27-.13.39-.08.1-.19.17-.32.19l.51.97h-.39ZM46.64,65.79c-.06-.06-.13-.06-.26-.06h-.51v.71h.51c.13,0,.19,0,.26-.06.08-.06.13-.16.13-.26-.13-.19-.13-.26-.13-.32h0Z"/>
    <path class="cls-4" d="M48.7,67.53l-.13-.45h-.84l-.13.45h-.32l.77-2.19h.26l.77,2.19h-.39ZM48.25,65.92l-.32.97h.64l-.33-.97Z"/>
    <path class="cls-4" d="M49.41,67.53v-2.19h.32v1.87h1.04v.32h-1.35Z"/>
    <path class="cls-4" d="M52.43,67.2c-.06.06-.06.13-.19.19-.06.06-.13.06-.26.13-.1.03-.21.05-.32.06-.15.02-.31,0-.45-.06-.11-.05-.22-.11-.32-.19l.19-.19c.06.06.19.13.26.19.1.03.21.05.32.06.11.02.22,0,.32-.06.08-.06.13-.16.13-.26,0-.13,0-.19-.06-.19l-.06-.06q-.06,0-.13-.06l-.26-.06c-.16.02-.31-.06-.39-.19-.1-.1-.15-.24-.13-.39,0-.09.01-.18.06-.26.06-.06.06-.13.13-.19.06-.08.16-.13.26-.13.1-.03.21-.05.32-.06.13-.01.26.01.39.06.13.06.19.13.32.19l-.19.19c-.06-.06-.13-.13-.19-.13s-.19-.06-.26-.06c-.11,0-.22.01-.32.06-.08.06-.13.16-.13.26v.13s.03.06.06.06c0,0,0,0,0,0,.06.06.13.06.26.13l.26.06c.13,0,.19.06.26.06.07,0,.12.06.13.13.06.06.13.13.13.19s.06.13.06.26c-.06-.06-.19.06-.19.13Z"/>
    <path class="cls-4" d="M57.26,63.86h-2.19c0-1.33-.26-2.64-.77-3.86-.46-1.16-1.16-2.21-2.06-3.09l1.54-1.54c1.04,1.08,1.87,2.35,2.45,3.73.69,1.49,1.04,3.12,1.03,4.76Z"/>
    <path class="cls-4" d="M51.98,56.65c-2.88-2.77-7.13-3.55-10.81-1.99-1.1.44-2.11,1.1-2.96,1.93l-1.48-1.61c1.04-1.02,2.26-1.83,3.6-2.38,3.02-1.29,6.44-1.29,9.46,0,1.36.59,2.6,1.42,3.67,2.45l-1.48,1.61Z"/>
    <path class="cls-4" d="M35.19,63.86h-2.19c0-1.64.33-3.26.97-4.76.59-1.38,1.42-2.64,2.45-3.73l1.54,1.54c-.84.88-1.51,1.91-1.99,3.03-.54,1.24-.81,2.58-.78,3.92Z"/>
    <path class="cls-4" d="M56.62,57.94l.84-.45-.45-.77-.84.45-.19-.26,1.87-1.09.19.26-.77.45.45.77.77-.45.19.26-1.87,1.09-.19-.26Z"/>
    <path class="cls-4" d="M57.07,58.71l1.99-.84.13.32-1.99.84-.13-.32Z"/>
    <path class="cls-4" d="M58.23,60.7c-.11,0-.22-.01-.32-.06-.1-.05-.18-.11-.26-.19-.07-.07-.11-.16-.13-.26-.05-.1-.07-.21-.06-.32,0-.13.06-.19.06-.32.06-.06.06-.13.13-.19s.13-.06.19-.13c.05-.05.12-.07.19-.06.06,0,.19-.06.26-.06.13,0,.19-.06.26-.06s.13-.06.26-.06h.19c.07,0,.14.02.19.06.06.06.19.13.26.19.07.07.11.16.13.26.05.1.07.21.06.32,0,.13,0,.19-.06.26s-.06.13-.13.19-.13.13-.19.13l-.13-.32c.13-.06.19-.13.19-.26.06-.1.06-.22,0-.32,0-.05-.03-.09-.06-.13l-.13-.13q-.06,0-.13-.06h-.13c-.07,0-.14.02-.19.06-.06,0-.13.06-.26.06-.08.04-.17.07-.26.06-.06,0-.13.06-.19.06s-.06.06-.13.06c-.03,0-.06.03-.06.06,0,0,0,0,0,0,0,.06-.06.13-.06.19v.19c0,.06.06.13.13.19l.13.13c.06,0,.13.06.19.06.07,0,.14-.02.19-.06l.13-.06-.13-.45.26-.06.26.77-.32.13c-.08.09-.2.14-.33.12h0Z"/>
    <path class="cls-4" d="M58.03,62.51l.97-.13-.13-.84-.9.13-.06-.32,2.12-.32.06.32-.9.13.13.84.9-.13.06.32-2.12.32-.13-.32Z"/>
    <path class="cls-4" d="M42.97,50.73c0,.13-.06.19-.06.26-.05.11-.14.2-.25.25-.09.08-.2.13-.32.13h-.32c-.1,0-.2-.05-.26-.13-.06-.06-.13-.06-.13-.13-.06-.06-.06-.13-.13-.19,0-.06-.06-.13-.06-.19s-.06-.19-.06-.26c0-.13-.06-.19-.06-.26v-.45c0-.06.06-.13.06-.19.06-.06.13-.19.19-.19.09-.08.2-.13.32-.13h.32c.06,0,.19.06.26.06l.19.19c.08.06.13.16.13.26l-.32.06c-.05-.1-.12-.18-.2-.26-.1-.06-.21-.08-.32-.06-.06,0-.13.06-.19.06l-.13.13c0,.06-.06.06-.06.13v.32c0,.09.02.18.06.26,0,.13.06.19.06.26s.06.13.06.19.06.06.06.13l.06.06s.09.03.13.06h.19c.06,0,.13-.06.19-.06.06-.06.13-.06.13-.13s.06-.13.06-.19v-.32l-.45.06-.06-.26.77-.19.06.32c.06.13.19.27.06.39h0Z"/>
    <path class="cls-4" d="M45.03,50.21v.26c0,.07-.02.14-.06.19,0,.06-.06.13-.13.19-.07.08-.16.14-.26.19-.1.06-.21.08-.32.06-.11,0-.22-.01-.32-.06-.06-.06-.19-.06-.26-.13l-.13-.13c0-.06-.06-.13-.06-.19,0-.09-.02-.18-.06-.26v-.77c0-.07.02-.14.06-.19,0-.06.06-.13.13-.19.07-.08.16-.14.26-.19.1-.06.21-.08.32-.06.11,0,.22.01.32.06.13.06.19.06.26.13l.13.13c.03.06.05.13.06.19,0,.09.02.18.06.26v.51h0ZM44.58,49.7v-.19q0-.06-.06-.13s-.03-.06-.06-.06c0,0,0,0,0,0q-.06-.06-.13-.06h-.19c-.07,0-.14.02-.19.06-.07,0-.12.06-.13.13-.04.03-.06.08-.06.13v1.03q0,.06.06.13s.03.06.06.06c0,0,0,0,0,0q.06.06.13.06h.19c.07,0,.14-.02.19-.06.07,0,.12-.06.13-.13l.06-.06v-.58c.13-.19,0-.26,0-.32Z"/>
    <path class="cls-4" d="M46.96,50.34c0,.09-.02.18-.06.26,0,.06-.06.13-.06.19-.06.06-.06.13-.13.13-.07.07-.16.11-.26.13-.13,0-.19.06-.32.06s-.19-.06-.32-.06c-.06-.06-.19-.13-.26-.19s-.06-.13-.13-.19c0-.06-.06-.13-.06-.19v-.77c0-.09.02-.18.06-.26,0-.06.06-.13.06-.19.06-.06.06-.13.13-.13.07-.07.16-.11.26-.13.13,0,.19-.06.32-.06s.19.06.32.06c.06.06.19.13.26.19s.06.13.13.19c0,.06.06.13.06.19v.51c.06.07,0,.2,0,.26ZM46.77,49.76v-.32c0-.06-.06-.06-.06-.13l-.13-.13c-.06,0-.13-.06-.19-.06h-.19s-.09.03-.13.06l-.06.06s-.06.08-.06.13c0,.07-.02.14-.06.19v.84c0,.06.06.06.06.13l.13.13c.06,0,.13.06.19.06h.19s.09-.03.13-.06l.06-.06s.06-.08.06-.13c0-.07.02-.14.06-.19v-.52h0Z"/>
    <path class="cls-4" d="M49.02,50.73c0,.06-.06.13-.06.26,0,.06-.06.13-.13.19s-.13.13-.19.13c-.08.05-.17.07-.26.06h-.32l-.77-.19.51-2.12.71.19c.13,0,.19.06.32.13l.19.19c.05.05.07.12.06.19v.39c0,.06-.06.13-.06.26v.32ZM48.89,50.02c0-.13,0-.19-.06-.26-.06-.12-.18-.19-.32-.19l-.45-.06-.32,1.54.39.06c.13.04.28.02.39-.06.08-.06.13-.16.13-.26.06-.13.06-.26.13-.39,0-.13.12-.26.12-.39h0Z"/>
    <path class="cls-4" d="M32.16,62.38l-2.12-.39.06-.32,1.87.32.19-1.03.32.06-.32,1.35Z"/>
    <path class="cls-4" d="M32.16,59.16c.06,0,.13.06.19.06s.13.06.19.13.06.13.13.19c.06.1.08.21.06.32,0,.11-.01.22-.06.32-.06.13-.06.19-.13.26-.07.08-.16.14-.26.19-.05.05-.12.07-.19.06h-.19c-.09,0-.18-.02-.26-.06-.06,0-.19-.06-.26-.06-.13,0-.19-.06-.26-.06s-.13-.06-.19-.06c-.06-.06-.13-.06-.19-.13s-.06-.13-.13-.19c-.06-.1-.08-.21-.06-.32,0-.11.01-.22.06-.32.06-.13.06-.19.13-.26.07-.08.16-.14.26-.19.05-.05.12-.07.19-.06h.19c.07,0,.14.02.19.06.06,0,.19.06.26.06.13,0,.19.06.32.06ZM31.52,59.29c-.07,0-.14-.02-.19-.06h-.13q-.06,0-.13.06c-.06,0-.06.06-.13.13-.05.05-.07.12-.06.19v.19c0,.07.02.14.06.19,0,.03.03.06.06.06,0,0,0,0,0,0,.03.04.08.06.13.06.06,0,.13.06.19.06s.13.06.26.06c.08.04.17.07.26.06.07,0,.14.02.19.06h.13q.06,0,.13-.06c.06,0,.06-.06.13-.13.05-.05.07-.12.06-.19v-.19c0-.07-.02-.14-.06-.19,0-.03-.03-.06-.06-.06,0,0,0,0,0,0-.03-.04-.08-.06-.13-.06-.06,0-.13-.06-.19-.06s-.13-.06-.26-.06-.19,0-.26-.07h0Z"/>
    <path class="cls-4" d="M33.9,57.49l-.13.26-1.54-.32,1.16,1.09-.13.26-2.19-.52.13-.32,1.54.39-1.16-1.09.13-.26,1.54.32-1.22-1.03.13-.32,1.74,1.54Z"/>
    <path class="cls-4" d="M45.35,62.7l-.33-7.79-.32,7.79c.13,0,.19-.06.32-.06s.33,0,.33.06Z"/>
    <path class="cls-4" d="M45.74,63.53c.16.37-.01.81-.39.97s-.81-.01-.97-.39c-.16-.37.01-.81.39-.97.39-.13.9,0,.97.39ZM44.9,63.53c-.18.07-.26.27-.19.45.07.18.27.26.45.19.18-.07.26-.27.19-.45-.02-.16-.16-.27-.32-.25-.05,0-.09.02-.13.05Z"/>
    <path class="cls-2" d="M68.85,70.85h4.29"/>
    <path class="cls-2" d="M68.85,67.45h4.29"/>
    <path class="cls-2" d="M68.85,64.04h4.29"/>
    <path class="cls-2" d="M68.85,60.64h4.29"/>
    <path class="cls-2" d="M68.85,57.24h4.29"/>
    <path class="cls-2" d="M68.85,53.77h4.29"/>
    <path class="cls-2" d="M68.85,50.36h4.29"/>
    <path class="cls-2" d="M68.85,46.96h4.29"/>
    <path class="cls-2" d="M68.85,43.56h4.29"/>
    <path class="cls-2" d="M68.85,40.09h4.29"/>
    <path class="cls-2" d="M68.85,36.69h4.29"/>
    <path class="cls-2" d="M68.85,33.28h4.29"/>
    <path class="cls-2" d="M68.85,29.88h4.29"/>
    <path class="cls-2" d="M68.85,26.41h4.29"/>
    <path class="cls-2" d="M68.85,23.01h4.29"/>
    <path class="cls-2" d="M68.85,19.6h4.29"/>
    <path class="cls-2" d="M16.6,70.85h4.29"/>
    <path class="cls-2" d="M16.6,67.45h4.29"/>
    <path class="cls-2" d="M16.6,64.04h4.29"/>
    <path class="cls-2" d="M16.6,60.64h4.29"/>
    <path class="cls-2" d="M16.6,57.24h4.29"/>
    <path class="cls-2" d="M16.6,53.77h4.29"/>
    <path class="cls-2" d="M16.6,50.36h4.29"/>
    <path class="cls-2" d="M16.6,46.96h4.29"/>
    <path class="cls-2" d="M16.6,43.56h4.29"/>
    <path class="cls-2" d="M16.6,40.09h4.29"/>
    <path class="cls-2" d="M16.6,36.69h4.29"/>
    <path class="cls-2" d="M16.6,33.28h4.29"/>
    <path class="cls-2" d="M16.6,29.88h4.29"/>
    <path class="cls-2" d="M16.6,26.41h4.29"/>
    <path class="cls-2" d="M16.6,23.01h4.29"/>
    <path class="cls-2" d="M16.6,19.6h4.29"/>
  </g>
</svg>