<svg width="1109" height="335" viewBox="0 0 1109 335" fill="none" xmlns="http://www.w3.org/2000/svg">
<path d="M668.053 268.191V283.899H686.533V291.06H668.053V307.461H688.843V314.622H659.275V261.03H688.843V268.191H668.053ZM721.061 271.502C724.398 271.502 727.375 272.195 729.993 273.581C732.662 274.967 734.741 277.02 736.23 279.741C737.719 282.461 738.463 285.747 738.463 289.597V314.622H729.762V290.906C729.762 287.107 728.812 284.207 726.913 282.205C725.014 280.151 722.421 279.125 719.136 279.125C715.851 279.125 713.233 280.151 711.282 282.205C709.383 284.207 708.433 287.107 708.433 290.906V314.622H699.655V272.195H708.433V277.046C709.87 275.3 711.693 273.94 713.9 272.965C716.159 271.989 718.546 271.502 721.061 271.502ZM759.901 279.356V302.841C759.901 304.432 760.26 305.587 760.979 306.306C761.749 306.973 763.032 307.307 764.829 307.307H770.219V314.622H763.289C759.336 314.622 756.307 313.698 754.203 311.85C752.098 310.002 751.046 306.999 751.046 302.841V279.356H746.041V272.195H751.046V261.646H759.901V272.195H770.219V279.356H759.901ZM817.194 292.369C817.194 293.96 817.092 295.397 816.886 296.681H784.469C784.726 300.069 785.984 302.789 788.242 304.843C790.501 306.896 793.273 307.923 796.558 307.923C801.281 307.923 804.618 305.946 806.568 301.994H816.039C814.756 305.895 812.42 309.103 809.032 311.619C805.696 314.083 801.538 315.315 796.558 315.315C792.503 315.315 788.858 314.416 785.624 312.62C782.442 310.772 779.926 308.205 778.078 304.92C776.282 301.583 775.383 297.733 775.383 293.37C775.383 289.006 776.256 285.182 778.001 281.897C779.798 278.56 782.288 275.993 785.47 274.197C788.704 272.4 792.4 271.502 796.558 271.502C800.562 271.502 804.13 272.374 807.261 274.12C810.393 275.865 812.831 278.329 814.576 281.512C816.322 284.643 817.194 288.262 817.194 292.369ZM808.031 289.597C807.98 286.363 806.825 283.77 804.566 281.82C802.308 279.869 799.51 278.894 796.173 278.894C793.145 278.894 790.552 279.869 788.396 281.82C786.24 283.719 784.957 286.311 784.546 289.597H808.031ZM834.611 278.355C835.894 276.199 837.588 274.53 839.693 273.35C841.849 272.118 844.39 271.502 847.316 271.502V280.588H845.083C841.643 280.588 839.025 281.46 837.229 283.206C835.483 284.951 834.611 287.98 834.611 292.292V314.622H825.833V272.195H834.611V278.355ZM864.162 278.432C865.651 276.481 867.679 274.838 870.245 273.504C872.812 272.169 875.712 271.502 878.946 315.315Z" fill="#0D3B50"/>
<path d="M283.204 125.812V195.806C283.204 204.127 285.363 210.394 289.682 214.608C294.106 218.821 300.215 220.928 308.01 220.928C315.91 220.928 322.019 218.821 326.338 214.608C330.762 210.394 332.974 204.127 332.974 195.806V125.812H350.986V195.49C350.986 204.443 349.037 212.027 345.14 218.242C341.243 224.456 336.029 229.091 329.498 232.146C322.967 235.2 315.752 236.728 307.852 236.728C299.952 236.728 292.737 235.2 286.206 232.146C279.781 229.091 274.672 224.456 270.88 218.242C267.088 212.027 265.192 204.443 265.192 195.49V125.812H283.204ZM431.476 235.622L406.196 191.698H392.45V235.622H374.438V125.812H412.358C420.785 125.812 427.895 127.286 433.688 130.236C439.587 133.185 443.958 137.135 446.802 142.086C449.751 147.036 451.226 152.566 451.226 158.676C451.226 165.838 449.119 172.369 444.906 178.268C440.798 184.061 434.425 188.011 425.788 190.118L452.964 235.622H431.476ZM392.45 177.32H412.358C419.099 177.32 424.155 175.634 427.526 172.264C431.002 168.893 432.74 164.364 432.74 158.676C432.74 152.988 431.055 148.564 427.684 145.404C424.313 142.138 419.205 140.506 412.358 140.506H392.45V177.32ZM492.122 125.812V195.806C492.122 204.127 494.281 210.394 498.6 214.608C503.024 218.821 509.133 220.928 516.928 220.928C524.828 220.928 530.937 218.821 535.256 214.608C539.68 210.394 541.892 204.127 541.892 195.806V125.812H559.904V195.49C559.904 204.443 557.955 212.027 554.058 218.242C550.161 224.456 544.947 229.091 538.416 232.146C531.885 235.2 524.67 236.728 516.77 236.728C508.87 236.728 501.655 235.2 495.124 232.146C488.699 229.091 483.59 224.456 479.798 218.242C476.006 212.027 474.11 204.443 474.11 195.49V125.812H492.122ZM643.87 235.622L601.368 186.484V235.622H583.356V125.812H601.368V175.898L644.028 125.812H666.622L618.906 180.796L667.412 235.622H643.87ZM740.378 235.622L715.098 191.698H701.352V235.622H683.34V125.812H721.26C729.687 125.812 736.797 127.286 742.59 130.236C748.489 133.185 752.86 137.135 755.704 142.086C758.654 147.036 760.128 152.566 760.128 158.676C760.128 165.838 758.022 172.369 753.808 178.268C749.7 184.061 743.328 188.011 734.69 190.118L761.866 235.622H740.378ZM701.352 177.32H721.26C728.002 177.32 733.058 175.634 736.428 172.264C739.904 168.893 741.642 164.364 741.642 158.676C741.642 152.988 739.957 148.564 736.586 145.404C733.216 142.138 728.107 140.506 721.26 140.506H701.352V177.32ZM801.024 125.812V195.806C801.024 204.127 803.184 210.394 807.502 214.608C811.926 218.821 818.036 220.928 825.83 220.928C833.73 220.928 839.84 218.821 844.158 214.608C848.582 210.394 850.794 204.127 850.794 195.806V125.812H868.806V195.49C868.806 204.443 866.858 212.027 862.96 218.242C859.063 224.456 853.849 229.091 847.318 232.146C840.788 235.2 833.572 236.728 825.672 236.728C817.772 236.728 810.557 235.2 804.026 232.146C797.601 229.091 792.492 224.456 788.7 218.242C784.908 212.027 783.012 204.443 783.012 195.49V125.812H801.024ZM969.046 158.518C969.046 164.1 967.73 169.367 965.096 174.318C962.463 179.268 958.25 183.324 952.456 186.484C946.663 189.538 939.237 191.066 930.178 191.066H910.27V235.622H892.258V125.812H930.178C938.605 125.812 945.715 127.286 951.508 130.236C957.407 133.08 961.778 136.977 964.622 141.928C967.572 146.878 969.046 152.408 969.046 158.518ZM930.178 176.372C937.025 176.372 942.134 174.844 945.504 171.79C948.875 168.63 950.56 164.206 950.56 158.518C950.56 146.51 943.766 140.506 930.178 140.506H910.27V176.372H930.178ZM1052.43 213.186H1006.45L998.549 235.622H979.747L1019.09 125.654H1039.95L1079.29 235.622H1060.33L1052.43 213.186ZM1047.37 198.492L1029.52 147.458L1011.51 198.492H1047.37Z" fill="#035797"/>
<path d="M225.291 160.503L225.869 165.545V174.821L223.743 167.606L222.986 165.772C222.075 163.562 220.985 161.431 219.727 159.399L218.428 157.298L216.381 154.817C214.915 153.041 213.257 151.432 211.437 150.021C209.724 148.692 207.876 147.545 205.925 146.599L204.608 145.96L201.419 144.929L196.78 143.805C194.212 143.182 191.579 142.868 188.936 142.868C185.932 142.868 182.942 143.274 180.047 144.076L179.949 144.104C177.966 144.653 176.037 145.381 174.185 146.278L164.212 151.114L153.581 156.268L146.786 159.308C142.138 161.389 137.164 162.646 132.086 163.025L127.697 163.352C126.531 163.439 125.358 163.389 124.203 163.202L123.669 163.116C120.996 162.684 118.521 161.442 116.577 159.557C114.383 157.43 112.994 154.609 112.647 151.573L112.507 150.351C112.252 148.133 112.447 145.888 113.077 143.746L113.225 143.245C113.901 140.952 114.998 138.805 116.461 136.914L117.512 135.555C119.572 132.892 122.088 130.618 124.945 128.837L130.111 125.617C133.691 123.386 137.573 121.68 141.639 120.554L146.015 119.342C148.925 118.536 151.91 118.031 154.924 117.836L166.338 117.099H175.238C179.208 117.099 183.16 117.636 186.986 118.696L188.662 119.16L186.986 118.696C183.16 117.636 179.208 117.099 175.238 117.099H166.338L154.924 117.836C151.91 118.031 148.925 118.536 146.015 119.342L141.639 120.554C137.573 121.68 133.691 123.386 130.111 125.617L124.945 128.837C122.088 130.618 119.572 132.892 117.512 135.555L116.461 136.914C114.998 138.805 113.901 140.952 113.225 143.245L113.077 143.746C112.447 145.888 112.252 148.133 112.507 150.351L112.647 151.573C112.994 154.609 114.383 157.43 116.577 159.557C118.521 161.442 120.996 162.684 123.669 163.116L124.203 163.202C125.358 163.389 126.531 163.439 127.697 163.352L132.086 163.025C137.164 162.646 142.138 161.389 146.786 159.308L153.581 156.268L164.212 151.114L174.185 146.278C176.037 145.381 177.966 144.653 179.949 144.104L180.047 144.076C182.942 143.274 185.932 142.868 188.936 142.868C191.579 142.868 194.212 143.182 196.78 143.805L201.419 144.929L204.608 145.96L205.925 146.599C207.876 147.545 209.724 148.692 211.437 150.021C213.257 151.432 214.915 153.041 216.381 154.817L218.428 157.298L219.727 159.399C220.985 161.431 222.075 163.562 222.986 165.772L223.743 167.606L225.869 174.821Z" stroke="#035797"/>
<path d="M231.185 166.297V168.637L232.635 165.824C233.083 164.956 233.668 164.167 234.369 163.488L235.89 162.013C236.296 161.62 236.661 161.187 236.981 160.721L237.328 160.217C238.17 158.993 239.392 158.081 240.806 157.625C241.475 157.409 242.173 157.298 242.876 157.298H243.929C244.643 157.298 245.355 157.213 246.049 157.045L248.042 157.045Z" fill="#035797" stroke="#035797"/>
<path d="M113.185 1.65253L101.491 0.621765L107.869 6.80636L112.122 11.9602V18.1448L108.932 21.2371L99.3648 23.2986L81.2927 27.4217L63.2207 34.637L45.1486 45.9755L30.2657 59.3754L17.509 73.8062L10.0676 88.2369L3.68919 104.729L0.5 128.437V145.96L3.68919 165.544L7.94144 178.944L16.4459 194.406L30.2657 213.99L45.1486 226.36L60.0315 236.667L77.0405 242.852L98.3017 249.036L118.5 250.067L139.761 249.036L152.518 245.944L165.275 240.79L180.158 233.575L192.914 225.329L202.482 216.052L209.923 206.775L216.302 194.406L219.491 184.098L218.428 171.729L215.239 163.483L209.923 156.267L208.86 157.298V170.698L202.482 185.129L193.977 201.621L180.158 213.99L162.085 224.298L139.761 233.575L105.743 234.606L77.0405 226.36L54.7162 213.99L35.5811 194.406L23.8874 172.76L18.5721 156.267L17.509 138.744L18.5721 117.098L24.9504 96.483L34.518 78.96L45.1486 65.56L60.0315 54.2216L78.1036 45.9755L95.1126 40.8216L113.185 39.7909L134.446 42.8832L146.14 49.0678L135.509 45.9755L118.5 43.9139L100.428 45.9755L87.6711 49.0678L75.9774 53.1908L58.9684 63.4985L48.3378 72.7754L38.7702 84.1138L29.2027 104.729L48.3378 82.0523L68.536 69.6831L87.6711 63.4985L100.428 60.4062L118.5 58.3447L142.95 60.4062L163.149 65.56L181.221 73.8062L204.608 88.2369L219.491 101.637L220.554 100.606L219.491 96.483L217.365 92.3599L218.428 83.083L216.302 73.8062L206.734 60.4062L184.41 41.8524L152.518 25.3601L122.752 16.0833L144.013 18.1448L113.185 1.65253Z" fill="#035797" stroke="#035797"/>
</svg>
